{"glyphs":{"0":{"ha":993,"x_min":0,"x_max":0,"o":"m 496 -17 b 907 486 746 -17 907 214 l 907 489 b 499 989 907 761 749 989 b 86 486 249 989 86 758 l 86 483 b 496 -17 86 211 244 -17 z m 499 83 b 200 486 317 83 200 274 l 200 489 b 496 889 200 703 314 889 b 793 486 676 889 793 699 l 793 483 b 499 83 793 271 681 83 z "},"1":{"ha":497,"x_min":0,"x_max":0,"o":"m 249 0 l 357 0 l 357 979 l 276 979 l 39 897 l 65 808 l 249 865 z "},"2":{"ha":832,"x_min":0,"x_max":0,"o":"m 67 0 l 746 0 l 746 100 l 231 100 l 490 331 b 736 708 661 479 736 567 l 736 711 b 435 986 736 869 610 986 b 85 779 264 986 172 910 l 165 721 b 426 888 243 829 315 888 b 622 701 532 888 622 815 b 419 396 622 604 568 529 l 67 85 z "},"3":{"ha":851,"x_min":0,"x_max":0,"o":"m 432 -17 b 757 276 613 -17 757 103 l 757 279 b 436 553 757 457 606 539 l 742 892 l 742 972 l 121 972 l 121 874 l 596 874 l 289 528 l 311 463 l 374 463 b 646 275 533 463 646 396 l 646 272 b 433 83 646 158 551 83 b 150 228 314 83 224 136 l 69 157 b 432 -17 149 54 269 -17 z "},"4":{"ha":932,"x_min":0,"x_max":0,"o":"m 600 0 l 707 0 l 707 231 l 857 231 l 857 322 l 707 322 l 707 979 l 610 979 l 60 311 l 88 231 l 600 231 z m 192 322 l 600 824 l 600 322 z "},"5":{"ha":850,"x_min":0,"x_max":0,"o":"m 421 -17 b 768 303 624 -17 768 113 l 768 306 b 432 603 768 492 621 603 b 240 560 351 603 297 585 l 261 871 l 725 871 l 725 972 l 165 972 l 138 499 l 211 450 b 415 506 268 481 333 506 b 657 301 557 506 657 422 l 657 299 b 422 83 657 176 561 83 b 146 217 324 83 231 135 l 74 138 b 421 -17 161 50 282 -17 z "},"6":{"ha":899,"x_min":0,"x_max":0,"o":"m 463 -17 b 811 307 660 -17 811 119 l 811 310 b 475 608 811 492 656 608 b 197 458 349 608 261 551 l 197 472 b 483 889 197 692 296 889 b 713 793 572 889 640 854 l 776 878 b 489 989 692 947 606 989 b 85 461 235 989 85 757 l 85 458 b 207 82 85 260 129 160 b 463 -17 268 21 356 -17 z m 464 81 b 218 299 321 81 218 175 l 218 301 b 461 514 218 410 315 514 b 699 306 601 514 699 425 l 699 303 b 464 81 699 179 607 81 z "},"7":{"ha":828,"x_min":0,"x_max":0,"o":"m 190 0 l 313 0 l 754 890 l 754 972 l 94 972 l 94 872 l 629 872 z "},"8":{"ha":875,"x_min":0,"x_max":0,"o":"m 438 -14 b 803 263 644 -14 803 97 l 803 265 b 603 503 803 381 718 460 b 769 726 693 544 769 614 l 769 729 b 438 986 769 879 615 986 b 106 729 260 986 106 879 l 106 726 b 272 503 106 614 182 544 b 72 264 156 461 72 379 l 72 261 b 438 -14 72 99 231 -14 z m 438 542 b 215 719 314 542 215 614 l 215 722 b 438 890 215 819 311 890 b 660 722 564 890 660 818 l 660 719 b 438 542 660 614 561 542 z m 438 82 b 183 264 278 82 183 167 l 183 267 b 438 451 183 375 296 451 b 692 267 579 451 692 375 l 692 264 b 438 82 692 165 597 82 z "},"9":{"ha":899,"x_min":0,"x_max":0,"o":"m 413 83 b 174 188 326 83 253 118 l 110 103 b 410 -17 192 35 283 -17 b 814 510 650 -17 814 201 l 814 513 b 693 889 814 707 767 815 b 438 989 631 951 549 989 b 88 658 231 989 88 843 l 88 656 b 426 354 88 481 226 354 b 701 508 551 354 640 414 l 701 489 b 413 83 701 279 600 83 z m 439 449 b 200 661 297 449 200 538 l 200 664 b 433 892 200 785 288 892 b 681 671 579 892 681 794 l 681 668 b 439 449 681 557 588 449 z "},"A":{"ha":1097,"x_min":0,"x_max":0,"o":"m 54 0 l 167 0 l 282 257 l 811 257 l 925 0 l 1043 0 l 600 979 l 497 979 z m 325 357 l 547 851 l 768 357 z "},"B":{"ha":1003,"x_min":0,"x_max":0,"o":"m 138 0 l 569 0 b 922 265 782 0 922 99 l 922 268 b 714 503 922 401 829 468 b 868 728 790 536 868 601 l 868 731 b 806 886 868 793 846 844 b 551 972 750 940 663 972 l 138 972 z m 757 713 b 533 539 757 599 665 539 l 246 539 l 246 874 l 542 874 b 757 715 681 874 757 811 z m 811 275 l 811 272 b 572 99 811 164 719 99 l 246 99 l 246 442 l 553 442 b 811 275 722 442 811 381 z "},"C":{"ha":1025,"x_min":0,"x_max":0,"o":"m 582 -17 b 971 154 758 -17 869 51 l 899 225 b 585 85 806 136 718 85 b 208 486 371 85 208 261 l 208 489 b 585 888 208 713 369 888 b 890 754 717 888 808 832 l 965 835 b 586 989 868 926 763 989 b 94 486 300 989 94 761 l 94 483 b 582 -17 94 204 301 -17 z "},"D":{"ha":1086,"x_min":0,"x_max":0,"o":"m 138 0 l 475 0 b 992 486 781 0 992 213 l 992 489 b 475 972 992 763 781 972 l 138 972 z m 475 871 b 878 486 721 871 878 701 l 878 483 b 475 101 878 268 721 101 l 247 101 l 247 871 z "},"E":{"ha":931,"x_min":0,"x_max":0,"o":"m 138 0 l 847 0 l 847 100 l 247 100 l 247 440 l 778 440 l 778 540 l 247 540 l 247 872 l 840 872 l 840 972 l 138 972 z "},"F":{"ha":911,"x_min":0,"x_max":0,"o":"m 138 0 l 247 0 l 247 424 l 774 424 l 774 524 l 247 524 l 247 871 l 836 871 l 836 972 l 138 972 z "},"G":{"ha":1089,"x_min":0,"x_max":0,"o":"m 589 -17 b 979 132 753 -17 889 51 l 979 519 l 578 519 l 578 421 l 874 421 l 874 179 b 593 82 807 125 704 82 b 208 486 357 82 208 254 l 208 489 b 578 888 208 706 363 888 b 874 776 715 888 799 842 l 944 860 b 582 989 847 942 746 989 b 94 486 290 989 94 753 l 94 483 b 589 -17 94 206 283 -17 z "},"H":{"ha":1056,"x_min":0,"x_max":0,"o":"m 138 0 l 247 0 l 247 438 l 808 438 l 808 0 l 918 0 l 918 972 l 808 972 l 808 540 l 247 540 l 247 972 l 138 972 z "},"I":{"ha":404,"x_min":0,"x_max":0,"o":"m 147 0 l 257 0 l 257 972 l 147 972 z "},"J":{"ha":768,"x_min":0,"x_max":0,"o":"m 343 -14 b 557 67 429 -14 503 14 b 646 322 613 122 646 208 l 646 972 l 535 972 l 535 321 b 344 88 535 167 454 88 b 122 226 243 88 182 136 l 43 158 b 343 -14 104 58 197 -14 z "},"K":{"ha":999,"x_min":0,"x_max":0,"o":"m 138 0 l 247 0 l 247 261 l 454 471 l 828 0 l 965 0 l 531 547 l 947 972 l 806 972 l 247 392 l 247 972 l 138 972 z "},"L":{"ha":860,"x_min":0,"x_max":0,"o":"m 138 0 l 794 0 l 794 101 l 247 101 l 247 972 l 138 972 z "},"M":{"ha":1206,"x_min":0,"x_max":0,"o":"m 138 0 l 244 0 l 244 786 l 599 267 l 604 267 l 958 788 l 958 0 l 1068 0 l 1068 972 l 957 972 l 603 442 l 249 972 l 138 972 z "},"N":{"ha":1097,"x_min":0,"x_max":0,"o":"m 138 0 l 244 0 l 244 797 l 872 0 l 960 0 l 960 972 l 853 972 l 853 193 l 240 972 l 138 972 z "},"O":{"ha":1181,"x_min":0,"x_max":0,"o":"m 589 -17 b 1086 486 885 -17 1086 218 l 1086 489 b 592 989 1086 757 888 989 b 94 486 296 989 94 754 l 94 483 b 589 -17 94 215 293 -17 z m 592 85 b 208 486 369 85 208 265 l 208 489 b 589 888 208 710 367 888 b 972 486 811 888 972 707 l 972 483 b 592 85 972 263 814 85 z "},"P":{"ha":928,"x_min":0,"x_max":0,"o":"m 138 0 l 247 0 l 247 343 l 483 343 b 865 661 690 343 865 451 l 865 664 b 501 972 865 856 721 972 l 138 972 z m 247 443 l 247 871 l 493 871 b 754 660 650 871 754 799 l 754 657 b 488 443 754 529 649 443 z "},"Q":{"ha":1181,"x_min":0,"x_max":0,"o":"m 1099 53 l 971 161 b 1086 486 1043 250 1086 365 l 1086 489 b 592 989 1086 757 888 989 b 94 486 296 989 94 754 l 94 483 b 589 -17 94 215 293 -17 b 894 86 708 -17 813 22 l 1024 -29 z m 592 85 b 208 486 369 85 208 265 l 208 489 b 589 888 208 710 367 888 b 972 486 811 888 972 707 l 972 483 b 890 229 972 386 943 299 l 708 394 l 635 313 l 817 157 b 592 85 756 111 678 85 z "},"R":{"ha":1004,"x_min":0,"x_max":0,"o":"m 138 0 l 247 0 l 247 378 l 525 378 l 807 0 l 942 0 l 643 397 b 907 681 796 425 907 519 l 907 683 b 832 875 907 760 879 828 b 556 972 771 936 675 972 l 138 972 z m 247 476 l 247 871 l 547 871 b 796 679 704 871 796 799 l 796 676 b 546 476 796 551 692 476 z "},"S":{"ha":889,"x_min":0,"x_max":0,"o":"m 471 -14 b 803 261 664 -14 803 94 l 803 264 b 486 539 803 413 703 492 b 222 728 272 585 222 636 l 222 731 b 429 888 222 818 303 888 b 710 782 529 888 619 856 l 774 867 b 432 986 675 946 574 986 b 113 721 247 986 113 874 l 113 718 b 439 438 113 558 215 486 b 692 253 643 394 692 343 l 692 250 b 475 85 692 154 606 85 b 142 222 340 85 243 131 l 74 142 b 471 -14 190 38 317 -14 z "},"T":{"ha":900,"x_min":0,"x_max":0,"o":"m 394 0 l 506 0 l 506 871 l 832 871 l 832 972 l 68 972 l 68 871 l 394 871 z "},"U":{"ha":1054,"x_min":0,"x_max":0,"o":"m 526 -15 b 932 415 769 -15 932 132 l 932 972 l 822 972 l 822 407 b 529 86 822 194 708 86 b 232 414 344 86 232 204 l 232 972 l 122 972 l 122 407 b 526 -15 122 132 286 -15 z "},"V":{"ha":1042,"x_min":0,"x_max":0,"o":"m 472 -7 l 569 -7 l 988 972 l 869 972 l 522 135 l 176 972 l 54 972 z "},"W":{"ha":1538,"x_min":0,"x_max":0,"o":"m 410 -7 l 501 -7 l 769 782 l 1036 -7 l 1129 -7 l 1476 972 l 1361 972 l 1083 163 l 817 975 l 726 975 l 460 163 l 182 972 l 63 972 z "},"X":{"ha":1007,"x_min":0,"x_max":0,"o":"m 801 972 l 504 572 l 207 972 l 78 972 l 436 496 l 64 0 l 190 0 l 501 419 l 813 0 l 943 0 l 571 496 l 929 972 z "},"Y":{"ha":994,"x_min":0,"x_max":0,"o":"m 442 0 l 553 0 l 553 386 l 957 972 l 829 972 l 499 486 l 171 972 l 38 972 l 442 385 z "},"Z":{"ha":963,"x_min":0,"x_max":0,"o":"m 93 0 l 872 0 l 872 99 l 242 99 l 872 899 l 872 972 l 114 972 l 114 874 l 722 874 l 93 74 z "},"a":{"ha":804,"x_min":0,"x_max":0,"o":"m 333 -15 b 593 108 460 -15 543 43 l 593 0 l 696 0 l 696 439 b 622 649 696 531 671 600 b 390 728 569 701 492 728 b 129 668 286 728 208 704 l 161 581 b 379 633 228 611 294 633 b 593 438 514 633 593 567 l 593 413 b 372 443 529 431 464 443 b 65 211 190 443 65 363 l 65 208 b 333 -15 65 61 200 -15 z m 354 69 b 174 213 257 69 174 122 l 174 215 b 383 364 174 306 249 364 b 594 333 471 364 542 349 l 594 264 b 354 69 594 150 486 69 z "},"b":{"ha":922,"x_min":0,"x_max":0,"o":"m 501 -15 b 844 358 675 -15 844 124 l 844 361 b 501 733 844 597 674 733 b 226 574 369 733 285 660 l 226 1014 l 119 1014 l 119 0 l 226 0 l 226 138 b 501 -15 282 57 368 -15 z m 482 81 b 222 358 349 81 222 192 l 222 361 b 482 638 222 525 349 638 b 735 360 618 638 735 529 l 735 357 b 482 81 735 183 621 81 z "},"c":{"ha":793,"x_min":0,"x_max":0,"o":"m 443 -17 b 736 122 578 -17 664 42 l 668 186 b 449 79 611 125 540 79 b 185 358 299 79 185 203 l 185 361 b 442 639 185 515 296 639 b 660 531 539 639 603 590 l 731 606 b 443 733 664 676 579 733 b 75 358 233 733 75 561 l 75 356 b 443 -17 75 154 233 -17 z "},"d":{"ha":922,"x_min":0,"x_max":0,"o":"m 421 -15 b 696 144 553 -15 638 58 l 696 0 l 803 0 l 803 1014 l 696 1014 l 696 581 b 421 733 640 661 554 733 b 78 360 249 733 78 594 l 78 357 b 421 -15 78 121 249 -15 z m 440 81 b 188 358 306 81 188 189 l 188 361 b 440 638 188 535 301 638 b 700 361 574 638 700 526 l 700 358 b 440 81 700 193 574 81 z "},"e":{"ha":822,"x_min":0,"x_max":0,"o":"m 433 -17 b 729 118 569 -17 657 38 l 663 178 b 436 76 604 117 535 76 b 183 319 308 76 199 164 l 753 319 b 754 354 754 332 754 340 b 419 733 754 564 632 733 b 75 360 221 733 75 567 l 75 357 b 433 -17 75 135 236 -17 z m 183 399 b 417 643 197 539 292 643 b 646 399 560 643 635 529 z "},"f":{"ha":510,"x_min":0,"x_max":0,"o":"m 160 0 l 267 0 l 267 624 l 493 624 l 493 715 l 265 715 l 265 774 b 390 926 265 876 307 926 b 494 908 426 926 456 919 l 494 1001 b 376 1019 460 1014 426 1019 b 222 964 311 1019 258 1000 b 160 779 182 924 160 861 l 160 717 l 61 717 l 61 624 l 160 624 z "},"g":{"ha":922,"x_min":0,"x_max":0,"o":"m 438 -225 b 711 -129 551 -225 647 -193 b 803 125 769 -71 803 14 l 803 718 l 696 718 l 696 589 b 415 733 638 667 550 733 b 78 394 244 733 78 604 l 78 392 b 415 56 78 185 243 56 b 697 207 547 56 635 124 l 697 122 b 436 -133 697 -46 594 -133 b 160 -42 333 -133 242 -101 l 111 -125 b 438 -225 207 -192 318 -225 z m 436 150 b 188 394 303 150 188 250 l 188 397 b 436 639 188 544 300 639 b 700 396 572 639 700 543 l 700 393 b 436 150 700 249 572 150 z "},"h":{"ha":856,"x_min":0,"x_max":0,"o":"m 119 0 l 226 0 l 226 411 b 442 636 226 546 318 636 b 640 419 568 636 640 553 l 640 0 l 747 0 l 747 446 b 472 733 747 617 646 733 b 226 593 349 733 274 671 l 226 1014 l 119 1014 z "},"i":{"ha":365,"x_min":0,"x_max":0,"o":"m 122 875 l 244 875 l 244 993 l 122 993 z m 129 0 l 236 0 l 236 718 l 129 718 z "},"j":{"ha":365,"x_min":0,"x_max":0,"o":"m 122 875 l 244 875 l 244 993 l 122 993 z m 61 -226 b 236 -42 169 -226 236 -168 l 236 718 l 129 718 l 129 -40 b 47 -136 129 -107 96 -136 b -6 -132 32 -136 11 -135 l -6 -219 b 61 -226 18 -225 36 -226 z "},"k":{"ha":790,"x_min":0,"x_max":0,"o":"m 119 0 l 226 0 l 226 188 l 372 335 l 629 0 l 757 0 l 446 410 l 747 718 l 614 718 l 226 314 l 226 1014 l 119 1014 z "},"l":{"ha":365,"x_min":0,"x_max":0,"o":"m 129 0 l 236 0 l 236 1014 l 129 1014 z "},"m":{"ha":1321,"x_min":0,"x_max":0,"o":"m 119 0 l 226 0 l 226 410 b 426 636 226 542 313 636 b 611 422 540 636 611 557 l 611 0 l 718 0 l 718 414 b 915 636 718 556 807 636 b 1101 419 1032 636 1101 558 l 1101 0 l 1208 0 l 1208 444 b 942 733 1208 622 1107 733 b 689 590 817 733 740 669 b 458 733 650 671 575 733 b 226 597 338 733 274 668 l 226 718 l 119 718 z "},"n":{"ha":856,"x_min":0,"x_max":0,"o":"m 119 0 l 226 0 l 226 411 b 442 636 226 546 318 636 b 640 419 568 636 640 553 l 640 0 l 747 0 l 747 446 b 472 733 747 617 646 733 b 226 593 349 733 274 671 l 226 718 l 119 718 z "},"o":{"ha":897,"x_min":0,"x_max":0,"o":"m 447 -17 b 824 358 664 -17 824 156 l 824 361 b 450 733 824 564 665 733 b 75 358 233 733 75 561 l 75 356 b 447 -17 75 153 232 -17 z m 450 79 b 185 358 299 79 185 204 l 185 361 b 447 639 185 513 292 639 b 714 358 599 639 714 513 l 714 356 b 450 79 714 204 606 79 z "},"p":{"ha":922,"x_min":0,"x_max":0,"o":"m 119 -222 l 226 -222 l 226 138 b 501 -15 282 57 368 -15 b 844 358 675 -15 844 124 l 844 361 b 501 733 844 597 674 733 b 226 574 369 733 285 660 l 226 718 l 119 718 z m 482 81 b 222 358 349 81 222 192 l 222 361 b 482 638 222 525 349 638 b 735 360 618 638 735 529 l 735 357 b 482 81 735 183 621 81 z "},"q":{"ha":922,"x_min":0,"x_max":0,"o":"m 696 -222 l 803 -222 l 803 718 l 696 718 l 696 581 b 421 733 640 661 554 733 b 78 360 249 733 78 594 l 78 357 b 421 -15 78 121 249 -15 b 696 144 553 -15 638 58 z m 440 81 b 188 358 306 81 188 189 l 188 361 b 440 638 188 535 301 638 b 700 361 574 638 700 526 l 700 358 b 440 81 700 193 574 81 z "},"r":{"ha":563,"x_min":0,"x_max":0,"o":"m 119 0 l 226 0 l 226 286 b 511 615 226 503 354 615 l 519 615 l 519 731 b 226 531 383 736 279 650 l 226 718 l 119 718 z "},"s":{"ha":692,"x_min":0,"x_max":0,"o":"m 357 -14 b 613 201 500 -14 613 65 l 613 204 b 382 410 613 333 493 376 b 197 533 286 439 197 465 l 197 536 b 336 640 197 596 251 640 b 549 571 406 640 482 614 l 597 651 b 339 731 524 700 426 731 b 94 525 197 731 94 649 l 94 522 b 332 319 94 390 219 351 b 511 193 426 293 511 265 l 511 190 b 363 76 511 121 449 76 b 114 168 278 76 192 110 l 60 92 b 357 -14 140 26 254 -14 z "},"t":{"ha":561,"x_min":0,"x_max":0,"o":"m 360 -12 b 489 18 411 -12 451 -1 l 489 110 b 385 85 451 92 421 85 b 264 204 313 85 264 117 l 264 624 l 492 624 l 492 718 l 264 718 l 264 935 l 157 935 l 157 718 l 57 718 l 57 624 l 157 624 l 157 190 b 360 -12 157 44 244 -12 z "},"u":{"ha":856,"x_min":0,"x_max":0,"o":"m 383 -15 b 629 125 507 -15 581 47 l 629 0 l 735 0 l 735 718 l 629 718 l 629 307 b 414 82 629 172 536 82 b 215 299 288 82 215 165 l 215 718 l 108 718 l 108 272 b 383 -15 108 101 210 -15 z "},"v":{"ha":815,"x_min":0,"x_max":0,"o":"m 360 -6 l 454 -6 l 767 718 l 651 718 l 408 122 l 167 718 l 49 718 z "},"w":{"ha":1196,"x_min":0,"x_max":0,"o":"m 310 -6 l 404 -6 l 599 561 l 792 -6 l 885 -6 l 1138 718 l 1026 718 l 838 142 l 643 721 l 554 721 l 361 142 l 172 718 l 58 718 z "},"x":{"ha":797,"x_min":0,"x_max":0,"o":"m 188 718 l 65 718 l 335 365 l 54 0 l 174 0 l 397 296 l 619 0 l 743 0 l 460 367 l 732 718 l 613 718 l 399 438 z "},"y":{"ha":821,"x_min":0,"x_max":0,"o":"m 426 119 l 165 718 l 47 718 l 374 3 b 226 -132 331 -99 290 -132 b 114 -106 181 -132 149 -124 l 78 -190 b 231 -226 126 -214 171 -226 b 469 -24 339 -226 408 -172 l 771 718 l 657 718 z "},"z":{"ha":772,"x_min":0,"x_max":0,"o":"m 78 0 l 700 0 l 700 90 l 222 90 l 700 650 l 700 718 l 94 718 l 94 628 l 554 628 l 78 68 z "},"Á":{"ha":1097,"x_min":0,"x_max":0,"o":"m 54 0 l 167 0 l 282 257 l 811 257 l 925 0 l 1043 0 l 600 979 l 497 979 z m 325 357 l 547 851 l 768 357 z m 504 1072 l 593 1072 l 753 1201 l 643 1251 z "},"á":{"ha":804,"x_min":0,"x_max":0,"o":"m 333 -15 b 593 108 460 -15 543 43 l 593 0 l 696 0 l 696 439 b 622 649 696 531 671 600 b 390 728 569 701 492 728 b 129 668 286 728 208 704 l 161 581 b 379 633 228 611 294 633 b 593 438 514 633 593 567 l 593 413 b 372 443 529 431 464 443 b 65 211 190 443 65 363 l 65 208 b 333 -15 65 61 200 -15 z m 354 69 b 174 213 257 69 174 122 l 174 215 b 383 364 174 306 249 364 b 594 333 471 364 542 349 l 594 264 b 354 69 594 150 486 69 z m 358 826 l 442 826 l 600 976 l 489 1028 z "},"Ă":{"ha":1097,"x_min":0,"x_max":0,"o":"m 54 0 l 167 0 l 282 257 l 811 257 l 925 0 l 1043 0 l 600 979 l 497 979 z m 325 357 l 547 851 l 768 357 z m 549 1069 b 754 1228 664 1069 746 1128 l 671 1228 b 549 1156 656 1183 617 1156 b 426 1228 481 1156 442 1183 l 343 1228 b 549 1069 351 1128 433 1069 z "},"ă":{"ha":804,"x_min":0,"x_max":0,"o":"m 333 -15 b 593 108 460 -15 543 43 l 593 0 l 696 0 l 696 439 b 622 649 696 531 671 600 b 390 728 569 701 492 728 b 129 668 286 728 208 704 l 161 581 b 379 633 228 611 294 633 b 593 438 514 633 593 567 l 593 413 b 372 443 529 431 464 443 b 65 211 190 443 65 363 l 65 208 b 333 -15 65 61 200 -15 z m 354 69 b 174 213 257 69 174 122 l 174 215 b 383 364 174 306 249 364 b 594 333 471 364 542 349 l 594 264 b 354 69 594 150 486 69 z m 401 824 b 607 997 517 824 599 888 l 529 997 b 401 910 513 946 472 910 b 274 997 331 910 290 946 l 196 997 b 401 824 204 888 286 824 z "},"Â":{"ha":1097,"x_min":0,"x_max":0,"o":"m 54 0 l 167 0 l 282 257 l 811 257 l 925 0 l 1043 0 l 600 979 l 497 979 z m 325 357 l 547 851 l 768 357 z m 346 1069 l 443 1069 l 547 1153 l 651 1069 l 751 1069 l 599 1233 l 499 1233 z "},"â":{"ha":804,"x_min":0,"x_max":0,"o":"m 333 -15 b 593 108 460 -15 543 43 l 593 0 l 696 0 l 696 439 b 622 649 696 531 671 600 b 390 728 569 701 492 728 b 129 668 286 728 208 704 l 161 581 b 379 633 228 611 294 633 b 593 438 514 633 593 567 l 593 413 b 372 443 529 431 464 443 b 65 211 190 443 65 363 l 65 208 b 333 -15 65 61 200 -15 z m 354 69 b 174 213 257 69 174 122 l 174 215 b 383 364 174 306 249 364 b 594 333 471 364 542 349 l 594 264 b 354 69 594 150 486 69 z m 207 826 l 296 826 l 400 919 l 504 826 l 596 826 l 449 1008 l 354 1008 z "},"Ä":{"ha":1097,"x_min":0,"x_max":0,"o":"m 54 0 l 167 0 l 282 257 l 811 257 l 925 0 l 1043 0 l 600 979 l 497 979 z m 325 357 l 547 851 l 768 357 z m 614 1072 l 743 1072 l 743 1197 l 614 1197 z m 354 1072 l 483 1072 l 483 1197 l 354 1197 z "},"ä":{"ha":804,"x_min":0,"x_max":0,"o":"m 333 -15 b 593 108 460 -15 543 43 l 593 0 l 696 0 l 696 439 b 622 649 696 531 671 600 b 390 728 569 701 492 728 b 129 668 286 728 208 704 l 161 581 b 379 633 228 611 294 633 b 593 438 514 633 593 567 l 593 413 b 372 443 529 431 464 443 b 65 211 190 443 65 363 l 65 208 b 333 -15 65 61 200 -15 z m 354 69 b 174 213 257 69 174 122 l 174 215 b 383 364 174 306 249 364 b 594 333 471 364 542 349 l 594 264 b 354 69 594 150 486 69 z m 461 826 l 585 826 l 585 958 l 461 958 z m 218 826 l 342 826 l 342 958 l 218 958 z "},"Æ":{"ha":1451,"x_min":0,"x_max":0,"o":"m 24 0 l 139 0 l 290 257 l 682 257 l 682 0 l 1368 0 l 1368 100 l 793 100 l 793 440 l 1299 440 l 1299 540 l 793 540 l 793 872 l 1361 872 l 1361 972 l 594 972 z m 346 357 l 649 875 l 682 875 l 682 357 z "},"æ":{"ha":1324,"x_min":0,"x_max":0,"o":"m 336 -15 b 650 128 469 -15 574 49 b 935 -17 714 38 819 -17 b 1231 118 1071 -17 1160 38 l 1164 178 b 938 76 1106 117 1038 76 b 686 319 811 76 700 164 l 1254 319 b 1257 354 1256 332 1257 340 b 922 733 1257 564 1133 733 b 647 574 804 733 704 671 b 383 728 611 676 519 728 b 129 668 281 728 208 704 l 161 581 b 372 633 228 611 290 633 b 579 438 504 633 579 567 l 579 413 b 367 443 515 431 454 443 b 65 211 190 443 65 363 l 65 208 b 336 -15 65 61 197 -15 z m 685 399 b 919 643 699 539 793 643 b 1147 399 1061 643 1136 529 z m 349 71 b 174 213 253 71 174 124 l 174 215 b 378 364 174 306 247 364 b 578 335 457 364 525 349 b 607 199 581 285 590 240 b 349 71 540 124 454 71 z "},"Ǽ":{"ha":1451,"x_min":0,"x_max":0,"o":"m 829 1058 l 918 1058 l 1078 1188 l 968 1238 z m 24 0 l 139 0 l 290 257 l 682 257 l 682 0 l 1368 0 l 1368 100 l 793 100 l 793 440 l 1299 440 l 1299 540 l 793 540 l 793 872 l 1361 872 l 1361 972 l 594 972 z m 346 357 l 649 875 l 682 875 l 682 357 z "},"ǽ":{"ha":1324,"x_min":0,"x_max":0,"o":"m 617 826 l 700 826 l 858 976 l 747 1028 z m 336 -15 b 650 128 469 -15 574 49 b 935 -17 714 38 819 -17 b 1231 118 1071 -17 1160 38 l 1164 178 b 938 76 1106 117 1038 76 b 686 319 811 76 700 164 l 1254 319 b 1257 354 1256 332 1257 340 b 922 733 1257 564 1133 733 b 647 574 804 733 704 671 b 383 728 611 676 519 728 b 129 668 281 728 208 704 l 161 581 b 372 633 228 611 290 633 b 579 438 504 633 579 567 l 579 413 b 367 443 515 431 454 443 b 65 211 190 443 65 363 l 65 208 b 336 -15 65 61 197 -15 z m 685 399 b 919 643 699 539 793 643 b 1147 399 1061 643 1136 529 z m 349 71 b 174 213 253 71 174 124 l 174 215 b 378 364 174 306 247 364 b 578 335 457 364 525 349 b 607 199 581 285 590 240 b 349 71 540 124 454 71 z "},"À":{"ha":1097,"x_min":0,"x_max":0,"o":"m 54 0 l 167 0 l 282 257 l 811 257 l 925 0 l 1043 0 l 600 979 l 497 979 z m 325 357 l 547 851 l 768 357 z m 593 1072 l 453 1251 l 344 1201 l 504 1072 z "},"à":{"ha":804,"x_min":0,"x_max":0,"o":"m 333 -15 b 593 108 460 -15 543 43 l 593 0 l 696 0 l 696 439 b 622 649 696 531 671 600 b 390 728 569 701 492 728 b 129 668 286 728 208 704 l 161 581 b 379 633 228 611 294 633 b 593 438 514 633 593 567 l 593 413 b 372 443 529 431 464 443 b 65 211 190 443 65 363 l 65 208 b 333 -15 65 61 200 -15 z m 354 69 b 174 213 257 69 174 122 l 174 215 b 383 364 174 306 249 364 b 594 333 471 364 542 349 l 594 264 b 354 69 594 150 486 69 z m 363 826 l 446 826 l 315 1028 l 204 976 z "},"Ā":{"ha":1097,"x_min":0,"x_max":0,"o":"m 54 0 l 167 0 l 282 257 l 811 257 l 925 0 l 1043 0 l 600 979 l 497 979 z m 325 357 l 547 851 l 768 357 z m 321 1101 l 776 1101 l 776 1190 l 321 1190 z "},"ā":{"ha":804,"x_min":0,"x_max":0,"o":"m 333 -15 b 593 108 460 -15 543 43 l 593 0 l 696 0 l 696 439 b 622 649 696 531 671 600 b 390 728 569 701 492 728 b 129 668 286 728 208 704 l 161 581 b 379 633 228 611 294 633 b 593 438 514 633 593 567 l 593 413 b 372 443 529 431 464 443 b 65 211 190 443 65 363 l 65 208 b 333 -15 65 61 200 -15 z m 354 69 b 174 213 257 69 174 122 l 174 215 b 383 364 174 306 249 364 b 594 333 471 364 542 349 l 594 264 b 354 69 594 150 486 69 z m 185 854 l 618 854 l 618 942 l 185 942 z "},"Ą":{"ha":1097,"x_min":0,"x_max":0,"o":"m 1054 -167 b 951 -101 982 -162 951 -140 b 1018 0 951 -67 972 -39 l 1043 0 l 600 979 l 497 979 l 54 0 l 167 0 l 282 257 l 811 257 l 925 0 b 860 -117 883 -39 860 -72 b 1038 -229 860 -181 921 -226 b 1054 -228 1043 -229 1049 -229 z m 325 357 l 547 851 l 768 357 z "},"ą":{"ha":804,"x_min":0,"x_max":0,"o":"m 713 -167 b 610 -101 640 -162 610 -140 b 676 0 610 -67 631 -39 l 696 0 l 696 439 b 622 649 696 531 671 600 b 390 728 569 701 492 728 b 129 668 286 728 208 704 l 161 581 b 379 633 228 611 294 633 b 593 438 514 633 593 567 l 593 413 b 372 443 529 431 464 443 b 65 211 190 443 65 363 l 65 208 b 333 -15 65 61 200 -15 b 593 108 460 -15 543 43 l 593 8 b 518 -117 544 -33 518 -69 b 696 -229 518 -181 579 -226 b 713 -228 701 -229 707 -229 z m 354 69 b 174 213 257 69 174 122 l 174 215 b 383 364 174 306 249 364 b 594 333 471 364 542 349 l 594 264 b 354 69 594 150 486 69 z "},"Å":{"ha":1097,"x_min":0,"x_max":0,"o":"m 54 0 l 167 0 l 282 257 l 811 257 l 925 0 l 1043 0 l 626 922 b 703 1042 671 946 703 989 b 549 1179 703 1121 632 1179 b 394 1042 465 1179 394 1121 b 471 922 394 989 425 946 z m 325 357 l 547 851 l 768 357 z m 549 957 b 456 1042 496 957 456 993 b 549 1126 456 1090 496 1126 b 642 1042 601 1126 642 1090 b 549 957 642 993 601 957 z "},"å":{"ha":804,"x_min":0,"x_max":0,"o":"m 333 -15 b 593 108 460 -15 543 43 l 593 0 l 696 0 l 696 439 b 622 649 696 531 671 600 b 390 728 569 701 492 728 b 129 668 286 728 208 704 l 161 581 b 379 633 228 611 294 633 b 593 438 514 633 593 567 l 593 413 b 372 443 529 431 464 443 b 65 211 190 443 65 363 l 65 208 b 333 -15 65 61 200 -15 z m 354 69 b 174 213 257 69 174 122 l 174 215 b 383 364 174 306 249 364 b 594 333 471 364 542 349 l 594 264 b 354 69 594 150 486 69 z m 401 824 b 553 969 485 824 553 889 b 401 1114 553 1049 485 1114 b 250 969 318 1114 250 1049 b 401 824 250 889 318 824 z m 401 874 b 306 969 350 874 306 917 b 401 1065 306 1021 350 1065 b 497 969 453 1065 497 1021 b 401 874 497 917 453 874 z "},"Ǻ":{"ha":1097,"x_min":0,"x_max":0,"o":"m 54 0 l 167 0 l 282 257 l 811 257 l 925 0 l 1043 0 l 626 922 b 703 1042 671 946 703 989 b 549 1179 703 1121 632 1179 b 394 1042 465 1179 394 1121 b 471 922 394 989 425 946 z m 325 357 l 547 851 l 768 357 z m 549 957 b 456 1042 496 957 456 993 b 549 1126 456 1090 496 1126 b 642 1042 601 1126 642 1090 b 549 957 642 993 601 957 z m 499 1221 l 588 1221 l 747 1332 l 640 1381 z "},"ǻ":{"ha":804,"x_min":0,"x_max":0,"o":"m 357 1154 l 444 1154 l 600 1278 l 493 1329 z m 333 -15 b 593 108 460 -15 543 43 l 593 0 l 696 0 l 696 439 b 622 649 696 531 671 600 b 390 728 569 701 492 728 b 129 668 286 728 208 704 l 161 581 b 379 633 228 611 294 633 b 593 438 514 633 593 567 l 593 413 b 372 443 529 431 464 443 b 65 211 190 443 65 363 l 65 208 b 333 -15 65 61 200 -15 z m 354 69 b 174 213 257 69 174 122 l 174 215 b 383 364 174 306 249 364 b 594 333 471 364 542 349 l 594 264 b 354 69 594 150 486 69 z m 401 824 b 553 969 485 824 553 889 b 401 1114 553 1049 485 1114 b 250 969 318 1114 250 1049 b 401 824 250 889 318 824 z m 401 874 b 306 969 350 874 306 917 b 401 1065 306 1021 350 1065 b 497 969 453 1065 497 1021 b 401 874 497 917 453 874 z "},"Ã":{"ha":1097,"x_min":0,"x_max":0,"o":"m 54 0 l 167 0 l 282 257 l 811 257 l 925 0 l 1043 0 l 600 979 l 497 979 z m 325 357 l 547 851 l 768 357 z m 650 1072 b 781 1213 715 1072 753 1117 l 713 1232 b 640 1167 692 1186 676 1167 b 561 1190 619 1167 590 1179 b 454 1221 524 1206 488 1221 b 324 1079 389 1221 351 1175 l 392 1060 b 464 1126 413 1107 428 1126 b 543 1103 486 1126 515 1114 b 650 1072 581 1088 618 1072 z "},"ã":{"ha":804,"x_min":0,"x_max":0,"o":"m 333 -15 b 593 108 460 -15 543 43 l 593 0 l 696 0 l 696 439 b 622 649 696 531 671 600 b 390 728 569 701 492 728 b 129 668 286 728 208 704 l 161 581 b 379 633 228 611 294 633 b 593 438 514 633 593 567 l 593 413 b 372 443 529 431 464 443 b 65 211 190 443 65 363 l 65 208 b 333 -15 65 61 200 -15 z m 354 69 b 174 213 257 69 174 122 l 174 215 b 383 364 174 306 249 364 b 594 333 471 364 542 349 l 594 264 b 354 69 594 150 486 69 z m 503 826 b 635 972 569 826 607 868 l 569 990 b 497 922 549 940 533 922 b 411 950 474 922 442 936 b 311 978 376 964 343 978 b 179 832 244 978 207 936 l 244 814 b 317 882 265 864 281 882 b 403 856 340 882 372 868 b 503 826 438 840 471 826 z "},"Ć":{"ha":1025,"x_min":0,"x_max":0,"o":"m 582 -17 b 971 154 758 -17 869 51 l 899 225 b 585 85 806 136 718 85 b 208 486 371 85 208 261 l 208 489 b 585 888 208 713 369 888 b 890 754 717 888 808 832 l 965 835 b 586 989 868 926 763 989 b 94 486 300 989 94 761 l 94 483 b 582 -17 94 204 301 -17 z m 531 1072 l 619 1072 l 779 1201 l 669 1251 z "},"ć":{"ha":793,"x_min":0,"x_max":0,"o":"m 392 826 l 475 826 l 633 976 l 522 1028 z m 443 -17 b 736 122 578 -17 664 42 l 668 186 b 449 79 611 125 540 79 b 185 358 299 79 185 203 l 185 361 b 442 639 185 515 296 639 b 660 531 539 639 603 590 l 731 606 b 443 733 664 676 579 733 b 75 358 233 733 75 561 l 75 356 b 443 -17 75 154 233 -17 z "},"Č":{"ha":1025,"x_min":0,"x_max":0,"o":"m 582 -17 b 971 154 758 -17 869 51 l 899 225 b 585 85 806 136 718 85 b 208 486 371 85 208 261 l 208 489 b 585 888 208 713 369 888 b 890 754 717 888 808 832 l 965 835 b 586 989 868 926 763 989 b 94 486 300 989 94 761 l 94 483 b 582 -17 94 204 301 -17 z m 778 1236 l 681 1236 l 576 1153 l 472 1236 l 372 1236 l 525 1072 l 625 1072 z "},"č":{"ha":793,"x_min":0,"x_max":0,"o":"m 631 1008 l 542 1008 l 438 915 l 333 1008 l 242 1008 l 389 826 l 483 826 z m 443 -17 b 736 122 578 -17 664 42 l 668 186 b 449 79 611 125 540 79 b 185 358 299 79 185 203 l 185 361 b 442 639 185 515 296 639 b 660 531 539 639 603 590 l 731 606 b 443 733 664 676 579 733 b 75 358 233 733 75 561 l 75 356 b 443 -17 75 154 233 -17 z "},"Ç":{"ha":1025,"x_min":0,"x_max":0,"o":"m 513 -215 l 604 -15 b 971 154 768 -10 874 56 l 899 225 b 585 85 806 136 718 85 b 208 486 371 85 208 261 l 208 489 b 585 888 208 713 369 888 b 890 754 717 888 808 832 l 965 835 b 586 989 868 926 763 989 b 94 486 300 989 94 761 l 94 483 b 515 -12 94 226 269 19 l 408 -168 z "},"ç":{"ha":793,"x_min":0,"x_max":0,"o":"m 372 -215 l 464 -15 b 736 122 586 -10 668 46 l 668 186 b 449 79 611 125 540 79 b 185 358 299 79 185 203 l 185 361 b 442 639 185 515 296 639 b 660 531 539 639 603 590 l 731 606 b 443 733 664 676 579 733 b 75 358 233 733 75 561 l 75 356 b 376 -10 75 176 200 21 l 268 -168 z "},"Ċ":{"ha":1025,"x_min":0,"x_max":0,"o":"m 508 1072 l 642 1072 l 642 1197 l 508 1197 z m 582 -17 b 971 154 758 -17 869 51 l 899 225 b 585 85 806 136 718 85 b 208 486 371 85 208 261 l 208 489 b 585 888 208 713 369 888 b 890 754 717 888 808 832 l 965 835 b 586 989 868 926 763 989 b 94 486 300 989 94 761 l 94 483 b 582 -17 94 204 301 -17 z "},"ċ":{"ha":793,"x_min":0,"x_max":0,"o":"m 443 -17 b 736 122 578 -17 664 42 l 668 186 b 449 79 611 125 540 79 b 185 358 299 79 185 203 l 185 361 b 442 639 185 515 296 639 b 660 531 539 639 603 590 l 731 606 b 443 733 664 676 579 733 b 75 358 233 733 75 561 l 75 356 b 443 -17 75 154 233 -17 z m 371 826 l 501 826 l 501 960 l 371 960 z "},"Ď":{"ha":1086,"x_min":0,"x_max":0,"o":"m 138 0 l 475 0 b 992 486 781 0 992 213 l 992 489 b 475 972 992 763 781 972 l 138 972 z m 475 871 b 878 486 721 871 878 701 l 878 483 b 475 101 878 268 721 101 l 247 101 l 247 871 z m 724 1222 l 626 1222 l 522 1139 l 418 1222 l 318 1222 l 471 1058 l 571 1058 z "},"ď":{"ha":922,"x_min":0,"x_max":0,"o":"m 892 811 l 943 811 l 1015 1036 l 1015 1040 l 913 1040 z m 421 -15 b 696 144 553 -15 638 58 l 696 0 l 803 0 l 803 1014 l 696 1014 l 696 581 b 421 733 640 661 554 733 b 78 360 249 733 78 594 l 78 357 b 421 -15 78 121 249 -15 z m 440 81 b 188 358 306 81 188 189 l 188 361 b 440 638 188 535 301 638 b 700 361 574 638 700 526 l 700 358 b 440 81 700 193 574 81 z "},"Đ":{"ha":1128,"x_min":0,"x_max":0,"o":"m 179 0 l 517 0 b 1033 486 822 0 1033 213 l 1033 489 b 517 972 1033 763 822 972 l 179 972 l 179 539 l 75 539 l 75 439 l 179 439 z m 581 439 l 581 539 l 289 539 l 289 871 l 517 871 b 919 486 763 871 919 701 l 919 483 b 517 101 919 268 763 101 l 289 101 l 289 439 z "},"đ":{"ha":922,"x_min":0,"x_max":0,"o":"m 450 849 l 696 849 l 696 581 b 421 733 640 661 554 733 b 78 360 249 733 78 594 l 78 357 b 421 -15 78 121 249 -15 b 696 144 553 -15 638 58 l 696 0 l 803 0 l 803 849 l 899 849 l 899 926 l 803 926 l 803 1014 l 696 1014 l 696 926 l 450 926 z m 440 81 b 188 358 306 81 188 189 l 188 361 b 440 638 188 535 301 638 b 700 361 574 638 700 526 l 700 358 b 440 81 700 193 574 81 z "},"É":{"ha":931,"x_min":0,"x_max":0,"o":"m 446 1058 l 535 1058 l 694 1188 l 585 1238 z m 138 0 l 847 0 l 847 100 l 247 100 l 247 440 l 778 440 l 778 540 l 247 540 l 247 872 l 840 872 l 840 972 l 138 972 z "},"é":{"ha":822,"x_min":0,"x_max":0,"o":"m 375 826 l 458 826 l 617 976 l 506 1028 z m 433 -17 b 729 118 569 -17 657 38 l 663 178 b 436 76 604 117 535 76 b 183 319 308 76 199 164 l 753 319 b 754 354 754 332 754 340 b 419 733 754 564 632 733 b 75 360 221 733 75 567 l 75 357 b 433 -17 75 135 236 -17 z m 183 399 b 417 643 197 539 292 643 b 646 399 560 643 635 529 z "},"Ĕ":{"ha":931,"x_min":0,"x_max":0,"o":"m 490 1056 b 696 1214 606 1056 688 1114 l 613 1214 b 490 1142 597 1169 558 1142 b 368 1214 422 1142 383 1169 l 285 1214 b 490 1056 293 1114 375 1056 z m 138 0 l 847 0 l 847 100 l 247 100 l 247 440 l 778 440 l 778 540 l 247 540 l 247 872 l 840 872 l 840 972 l 138 972 z "},"ĕ":{"ha":822,"x_min":0,"x_max":0,"o":"m 433 -17 b 729 118 569 -17 657 38 l 663 178 b 436 76 604 117 535 76 b 183 319 308 76 199 164 l 753 319 b 754 354 754 332 754 340 b 419 733 754 564 632 733 b 75 360 221 733 75 567 l 75 357 b 433 -17 75 135 236 -17 z m 183 399 b 417 643 197 539 292 643 b 646 399 560 643 635 529 z m 418 824 b 624 997 533 824 615 888 l 546 997 b 418 910 529 946 489 910 b 290 997 347 910 307 946 l 213 997 b 418 824 221 888 303 824 z "},"Ě":{"ha":931,"x_min":0,"x_max":0,"o":"m 693 1222 l 596 1222 l 492 1139 l 388 1222 l 288 1222 l 440 1058 l 540 1058 z m 138 0 l 847 0 l 847 100 l 247 100 l 247 440 l 778 440 l 778 540 l 247 540 l 247 872 l 840 872 l 840 972 l 138 972 z "},"ě":{"ha":822,"x_min":0,"x_max":0,"o":"m 613 1008 l 524 1008 l 419 915 l 315 1008 l 224 1008 l 371 826 l 465 826 z m 433 -17 b 729 118 569 -17 657 38 l 663 178 b 436 76 604 117 535 76 b 183 319 308 76 199 164 l 753 319 b 754 354 754 332 754 340 b 419 733 754 564 632 733 b 75 360 221 733 75 567 l 75 357 b 433 -17 75 135 236 -17 z m 183 399 b 417 643 197 539 292 643 b 646 399 560 643 635 529 z "},"Ê":{"ha":931,"x_min":0,"x_max":0,"o":"m 138 0 l 847 0 l 847 100 l 247 100 l 247 440 l 778 440 l 778 540 l 247 540 l 247 872 l 840 872 l 840 972 l 138 972 z m 288 1058 l 385 1058 l 489 1142 l 593 1058 l 693 1058 l 540 1222 l 440 1222 z "},"ê":{"ha":822,"x_min":0,"x_max":0,"o":"m 224 826 l 313 826 l 417 919 l 521 826 l 613 826 l 465 1008 l 371 1008 z m 433 -17 b 729 118 569 -17 657 38 l 663 178 b 436 76 604 117 535 76 b 183 319 308 76 199 164 l 753 319 b 754 354 754 332 754 340 b 419 733 754 564 632 733 b 75 360 221 733 75 567 l 75 357 b 433 -17 75 135 236 -17 z m 183 399 b 417 643 197 539 292 643 b 646 399 560 643 635 529 z "},"Ë":{"ha":931,"x_min":0,"x_max":0,"o":"m 557 1058 l 686 1058 l 686 1183 l 557 1183 z m 297 1058 l 426 1058 l 426 1183 l 297 1183 z m 138 0 l 847 0 l 847 100 l 247 100 l 247 440 l 778 440 l 778 540 l 247 540 l 247 872 l 840 872 l 840 972 l 138 972 z "},"ë":{"ha":822,"x_min":0,"x_max":0,"o":"m 478 826 l 601 826 l 601 958 l 478 958 z m 235 826 l 358 826 l 358 958 l 235 958 z m 433 -17 b 729 118 569 -17 657 38 l 663 178 b 436 76 604 117 535 76 b 183 319 308 76 199 164 l 753 319 b 754 354 754 332 754 340 b 419 733 754 564 632 733 b 75 360 221 733 75 567 l 75 357 b 433 -17 75 135 236 -17 z m 183 399 b 417 643 197 539 292 643 b 646 399 560 643 635 529 z "},"Ė":{"ha":931,"x_min":0,"x_max":0,"o":"m 424 1058 l 557 1058 l 557 1183 l 424 1183 z m 138 0 l 847 0 l 847 100 l 247 100 l 247 440 l 778 440 l 778 540 l 247 540 l 247 872 l 840 872 l 840 972 l 138 972 z "},"ė":{"ha":822,"x_min":0,"x_max":0,"o":"m 433 -17 b 729 118 569 -17 657 38 l 663 178 b 436 76 604 117 535 76 b 183 319 308 76 199 164 l 753 319 b 754 354 754 332 754 340 b 419 733 754 564 632 733 b 75 360 221 733 75 567 l 75 357 b 433 -17 75 135 236 -17 z m 183 399 b 417 643 197 539 292 643 b 646 399 560 643 635 529 z m 353 826 l 483 826 l 483 960 l 353 960 z "},"È":{"ha":931,"x_min":0,"x_max":0,"o":"m 536 1058 l 396 1238 l 288 1188 l 447 1058 z m 138 0 l 847 0 l 847 100 l 247 100 l 247 440 l 778 440 l 778 540 l 247 540 l 247 872 l 840 872 l 840 972 l 138 972 z "},"è":{"ha":822,"x_min":0,"x_max":0,"o":"m 433 -17 b 729 118 569 -17 657 38 l 663 178 b 436 76 604 117 535 76 b 183 319 308 76 199 164 l 753 319 b 754 354 754 332 754 340 b 419 733 754 564 632 733 b 75 360 221 733 75 567 l 75 357 b 433 -17 75 135 236 -17 z m 183 399 b 417 643 197 539 292 643 b 646 399 560 643 635 529 z m 378 826 l 461 826 l 331 1028 l 219 976 z "},"Ē":{"ha":931,"x_min":0,"x_max":0,"o":"m 263 1088 l 718 1088 l 718 1176 l 263 1176 z m 138 0 l 847 0 l 847 100 l 247 100 l 247 440 l 778 440 l 778 540 l 247 540 l 247 872 l 840 872 l 840 972 l 138 972 z "},"ē":{"ha":822,"x_min":0,"x_max":0,"o":"m 433 -17 b 729 118 569 -17 657 38 l 663 178 b 436 76 604 117 535 76 b 183 319 308 76 199 164 l 753 319 b 754 354 754 332 754 340 b 419 733 754 564 632 733 b 75 360 221 733 75 567 l 75 357 b 433 -17 75 135 236 -17 z m 183 399 b 417 643 197 539 292 643 b 646 399 560 643 635 529 z m 201 854 l 635 854 l 635 942 l 201 942 z "},"Ę":{"ha":931,"x_min":0,"x_max":0,"o":"m 138 0 l 715 0 b 650 -117 674 -39 650 -72 b 828 -229 650 -181 711 -226 b 844 -228 833 -229 839 -229 l 844 -167 b 742 -101 772 -162 742 -140 b 808 0 742 -67 763 -39 l 847 0 l 847 100 l 247 100 l 247 440 l 778 440 l 778 540 l 247 540 l 247 872 l 840 872 l 840 972 l 138 972 z "},"ę":{"ha":822,"x_min":0,"x_max":0,"o":"m 183 399 b 417 643 197 539 292 643 b 646 399 560 643 635 529 z m 663 178 b 436 76 604 117 535 76 b 183 319 308 76 199 164 l 753 319 b 754 354 754 332 754 340 b 419 733 754 564 632 733 b 75 360 221 733 75 567 l 75 357 b 433 -17 75 135 236 -17 b 518 -8 463 -17 493 -14 b 468 -112 485 -43 468 -75 b 646 -229 468 -182 528 -226 b 663 -228 650 -229 657 -229 l 663 -167 b 558 -93 589 -161 558 -140 b 654 47 558 -54 579 -17 b 729 118 686 74 704 90 z "},"Ð":{"ha":1128,"x_min":0,"x_max":0,"o":"m 179 0 l 517 0 b 1033 486 822 0 1033 213 l 1033 489 b 517 972 1033 763 822 972 l 179 972 l 179 539 l 75 539 l 75 439 l 179 439 z m 581 439 l 581 539 l 289 539 l 289 871 l 517 871 b 919 486 763 871 919 701 l 919 483 b 517 101 919 268 763 101 l 289 101 l 289 439 z "},"ð":{"ha":897,"x_min":0,"x_max":0,"o":"m 685 951 l 653 1018 l 507 957 l 440 1014 l 286 1014 b 410 915 329 982 371 949 l 278 861 l 310 796 l 469 861 b 663 617 556 781 624 696 b 414 717 603 671 525 717 b 75 364 236 717 75 574 l 75 361 b 443 -17 75 153 235 -17 b 821 392 671 -17 821 154 l 821 394 b 565 901 821 593 711 760 z m 450 79 b 185 356 299 79 185 204 l 185 358 b 439 626 185 510 285 626 b 711 358 600 626 711 510 l 711 356 b 450 79 711 200 604 79 z "},"Ğ":{"ha":1089,"x_min":0,"x_max":0,"o":"m 572 1069 b 778 1228 688 1069 769 1128 l 694 1228 b 572 1156 679 1183 640 1156 b 450 1228 504 1156 465 1183 l 367 1228 b 572 1069 375 1128 457 1069 z m 589 -17 b 979 132 753 -17 889 51 l 979 519 l 578 519 l 578 421 l 874 421 l 874 179 b 593 82 807 125 704 82 b 208 486 357 82 208 254 l 208 489 b 578 888 208 706 363 888 b 874 776 715 888 799 842 l 944 860 b 582 989 847 942 746 989 b 94 486 290 989 94 753 l 94 483 b 589 -17 94 206 283 -17 z "},"ğ":{"ha":922,"x_min":0,"x_max":0,"o":"m 438 -225 b 711 -129 551 -225 647 -193 b 803 125 769 -71 803 14 l 803 718 l 696 718 l 696 589 b 415 733 638 667 550 733 b 78 394 244 733 78 604 l 78 392 b 415 56 78 185 243 56 b 697 207 547 56 635 124 l 697 122 b 436 -133 697 -46 594 -133 b 160 -42 333 -133 242 -101 l 111 -125 b 438 -225 207 -192 318 -225 z m 436 150 b 188 394 303 150 188 250 l 188 397 b 436 639 188 544 300 639 b 700 396 572 639 700 543 l 700 393 b 436 150 700 249 572 150 z m 465 824 b 671 997 581 824 663 888 l 593 997 b 465 910 576 946 536 910 b 338 997 394 910 354 946 l 260 997 b 465 824 268 888 350 824 z "},"Ģ":{"ha":1089,"x_min":0,"x_max":0,"o":"m 489 -339 b 633 -197 585 -329 633 -285 l 633 -99 l 508 -99 l 508 -214 l 564 -214 b 479 -297 568 -261 542 -286 z m 589 -17 b 979 132 753 -17 889 51 l 979 519 l 578 519 l 578 421 l 874 421 l 874 179 b 593 82 807 125 704 82 b 208 486 357 82 208 254 l 208 489 b 578 888 208 706 363 888 b 874 776 715 888 799 842 l 944 860 b 582 989 847 942 746 989 b 94 486 290 989 94 753 l 94 483 b 589 -17 94 206 283 -17 z "},"ģ":{"ha":922,"x_min":0,"x_max":0,"o":"m 546 1067 b 401 925 450 1057 401 1013 l 401 826 l 526 826 l 526 942 l 471 942 b 556 1025 467 989 493 1014 z m 438 -225 b 711 -129 551 -225 647 -193 b 803 125 769 -71 803 14 l 803 718 l 696 718 l 696 589 b 415 733 638 667 550 733 b 78 394 244 733 78 604 l 78 392 b 415 56 78 185 243 56 b 697 207 547 56 635 124 l 697 122 b 436 -133 697 -46 594 -133 b 160 -42 333 -133 242 -101 l 111 -125 b 438 -225 207 -192 318 -225 z m 436 150 b 188 394 303 150 188 250 l 188 397 b 436 639 188 544 300 639 b 700 396 572 639 700 543 l 700 393 b 436 150 700 249 572 150 z "},"Ġ":{"ha":1089,"x_min":0,"x_max":0,"o":"m 506 1072 l 639 1072 l 639 1197 l 506 1197 z m 589 -17 b 979 132 753 -17 889 51 l 979 519 l 578 519 l 578 421 l 874 421 l 874 179 b 593 82 807 125 704 82 b 208 486 357 82 208 254 l 208 489 b 578 888 208 706 363 888 b 874 776 715 888 799 842 l 944 860 b 582 989 847 942 746 989 b 94 486 290 989 94 753 l 94 483 b 589 -17 94 206 283 -17 z "},"ġ":{"ha":922,"x_min":0,"x_max":0,"o":"m 438 -225 b 711 -129 551 -225 647 -193 b 803 125 769 -71 803 14 l 803 718 l 696 718 l 696 589 b 415 733 638 667 550 733 b 78 394 244 733 78 604 l 78 392 b 415 56 78 185 243 56 b 697 207 547 56 635 124 l 697 122 b 436 -133 697 -46 594 -133 b 160 -42 333 -133 242 -101 l 111 -125 b 438 -225 207 -192 318 -225 z m 436 150 b 188 394 303 150 188 250 l 188 397 b 436 639 188 544 300 639 b 700 396 572 639 700 543 l 700 393 b 436 150 700 249 572 150 z m 400 826 l 531 826 l 531 960 l 400 960 z "},"Ħ":{"ha":1117,"x_min":0,"x_max":0,"o":"m 65 708 l 168 708 l 168 0 l 278 0 l 278 433 l 839 433 l 839 0 l 949 0 l 949 708 l 1051 708 l 1051 793 l 949 793 l 949 972 l 839 972 l 839 793 l 278 793 l 278 972 l 168 972 l 168 793 l 65 793 z m 278 535 l 278 708 l 839 708 l 839 535 z "},"ħ":{"ha":856,"x_min":0,"x_max":0,"o":"m 472 849 l 472 926 l 226 926 l 226 1014 l 119 1014 l 119 926 l 24 926 l 24 849 l 119 849 l 119 0 l 226 0 l 226 411 b 442 636 226 546 318 636 b 640 419 568 636 640 553 l 640 0 l 747 0 l 747 446 b 472 733 747 617 646 733 b 226 593 349 733 274 671 l 226 849 z "},"Í":{"ha":404,"x_min":0,"x_max":0,"o":"m 147 0 l 257 0 l 257 972 l 147 972 z m 158 1058 l 247 1058 l 407 1188 l 297 1238 z "},"í":{"ha":365,"x_min":0,"x_max":0,"o":"m 140 826 l 224 826 l 382 976 l 271 1028 z m 129 0 l 236 0 l 236 718 l 129 718 z "},"Ĭ":{"ha":404,"x_min":0,"x_max":0,"o":"m 147 0 l 257 0 l 257 972 l 147 972 z m 203 1056 b 408 1214 318 1056 400 1114 l 325 1214 b 203 1142 310 1169 271 1142 b 81 1214 135 1142 96 1169 l -3 1214 b 203 1056 6 1114 88 1056 z "},"ĭ":{"ha":365,"x_min":0,"x_max":0,"o":"m 129 0 l 236 0 l 236 718 l 129 718 z m 183 824 b 389 997 299 824 381 888 l 311 997 b 183 910 294 946 254 910 b 56 997 113 910 72 946 l -22 997 b 183 824 -14 888 68 824 z "},"Î":{"ha":404,"x_min":0,"x_max":0,"o":"m 147 0 l 257 0 l 257 972 l 147 972 z m 0 1058 l 97 1058 l 201 1142 l 306 1058 l 406 1058 l 253 1222 l 153 1222 z "},"î":{"ha":365,"x_min":0,"x_max":0,"o":"m -11 826 l 78 826 l 182 919 l 286 826 l 378 826 l 231 1008 l 136 1008 z m 129 0 l 236 0 l 236 718 l 129 718 z "},"Ï":{"ha":404,"x_min":0,"x_max":0,"o":"m 147 0 l 257 0 l 257 972 l 147 972 z m 269 1058 l 399 1058 l 399 1183 l 269 1183 z m 10 1058 l 139 1058 l 139 1183 l 10 1183 z "},"ï":{"ha":365,"x_min":0,"x_max":0,"o":"m 243 826 l 367 826 l 367 958 l 243 958 z m 0 826 l 124 826 l 124 958 l 0 958 z m 129 0 l 236 0 l 236 718 l 129 718 z "},"İ":{"ha":404,"x_min":0,"x_max":0,"o":"m 147 0 l 257 0 l 257 972 l 147 972 z m 136 1058 l 269 1058 l 269 1183 l 136 1183 z "},"ı":{"ha":365,"x_min":0,"x_max":0,"o":"m 129 0 l 236 0 l 236 718 l 129 718 z "},"Ì":{"ha":404,"x_min":0,"x_max":0,"o":"m 147 0 l 257 0 l 257 972 l 147 972 z m 247 1058 l 107 1238 l -1 1188 l 158 1058 z "},"ì":{"ha":365,"x_min":0,"x_max":0,"o":"m 129 0 l 236 0 l 236 718 l 129 718 z m 143 826 l 226 826 l 96 1028 l -15 976 z "},"Ī":{"ha":404,"x_min":0,"x_max":0,"o":"m 147 0 l 257 0 l 257 972 l 147 972 z m -25 1088 l 431 1088 l 431 1176 l -25 1176 z "},"ī":{"ha":365,"x_min":0,"x_max":0,"o":"m 129 0 l 236 0 l 236 718 l 129 718 z m -33 854 l 400 854 l 400 942 l -33 942 z "},"Į":{"ha":404,"x_min":0,"x_max":0,"o":"m 147 0 l 150 0 b 85 -117 108 -39 85 -72 b 263 -229 85 -181 146 -226 b 279 -228 268 -229 274 -229 l 279 -167 b 176 -101 207 -162 176 -140 b 243 0 176 -67 197 -39 l 257 0 l 257 972 l 147 972 z "},"į":{"ha":365,"x_min":0,"x_max":0,"o":"m 129 0 l 131 0 b 65 -117 89 -39 65 -72 b 243 -229 65 -181 126 -226 b 260 -228 249 -229 254 -229 l 260 -167 b 157 -101 188 -162 157 -140 b 224 0 157 -67 178 -39 l 236 0 l 236 718 l 129 718 z m 122 875 l 244 875 l 244 993 l 122 993 z "},"Ķ":{"ha":999,"x_min":0,"x_max":0,"o":"m 421 -331 b 565 -189 517 -321 565 -276 l 565 -90 l 440 -90 l 440 -206 l 496 -206 b 411 -289 500 -253 474 -278 z m 138 0 l 247 0 l 247 261 l 454 471 l 828 0 l 965 0 l 531 547 l 947 972 l 806 972 l 247 392 l 247 972 l 138 972 z "},"ķ":{"ha":790,"x_min":0,"x_max":0,"o":"m 332 -337 b 476 -196 428 -328 476 -283 l 476 -97 l 351 -97 l 351 -212 l 407 -212 b 322 -296 411 -260 385 -285 z m 119 0 l 226 0 l 226 188 l 372 335 l 629 0 l 757 0 l 446 410 l 747 718 l 614 718 l 226 314 l 226 1014 l 119 1014 z "},"Ĺ":{"ha":860,"x_min":0,"x_max":0,"o":"m 164 1058 l 253 1058 l 413 1188 l 303 1238 z m 138 0 l 794 0 l 794 101 l 247 101 l 247 972 l 138 972 z "},"ĺ":{"ha":365,"x_min":0,"x_max":0,"o":"m 140 1086 l 229 1086 l 389 1215 l 279 1265 z m 129 0 l 236 0 l 236 1014 l 129 1014 z "},"Ľ":{"ha":860,"x_min":0,"x_max":0,"o":"m 375 744 l 426 744 l 499 969 l 499 974 l 396 974 z m 138 0 l 794 0 l 794 101 l 247 101 l 247 972 l 138 972 z "},"ľ":{"ha":365,"x_min":0,"x_max":0,"o":"m 325 811 l 376 811 l 449 1036 l 449 1040 l 346 1040 z m 129 0 l 236 0 l 236 1014 l 129 1014 z "},"Ļ":{"ha":860,"x_min":0,"x_max":0,"o":"m 378 -337 b 522 -196 474 -328 522 -283 l 522 -97 l 397 -97 l 397 -212 l 453 -212 b 368 -296 457 -260 431 -285 z m 138 0 l 794 0 l 794 101 l 247 101 l 247 972 l 138 972 z "},"ļ":{"ha":365,"x_min":0,"x_max":0,"o":"m 100 -337 b 244 -196 196 -328 244 -283 l 244 -97 l 119 -97 l 119 -212 l 175 -212 b 90 -296 179 -260 153 -285 z m 129 0 l 236 0 l 236 1014 l 129 1014 z "},"Ŀ":{"ha":860,"x_min":0,"x_max":0,"o":"m 581 444 l 708 444 l 708 578 l 581 578 z m 138 0 l 794 0 l 794 101 l 247 101 l 247 972 l 138 972 z "},"ŀ":{"ha":460,"x_min":0,"x_max":0,"o":"m 356 449 l 474 449 l 474 576 l 356 576 z m 129 0 l 236 0 l 236 1014 l 129 1014 z "},"Ł":{"ha":901,"x_min":0,"x_max":0,"o":"m 535 557 l 535 664 l 288 549 l 288 972 l 179 972 l 179 499 l 75 450 l 75 343 l 179 390 l 179 0 l 836 0 l 836 101 l 288 101 l 288 440 z "},"ł":{"ha":449,"x_min":0,"x_max":0,"o":"m 383 544 l 383 651 l 278 594 l 278 1014 l 172 1014 l 172 538 l 67 482 l 67 374 l 172 431 l 172 0 l 278 0 l 278 488 z "},"Ń":{"ha":1097,"x_min":0,"x_max":0,"o":"m 504 1054 l 593 1054 l 753 1183 l 643 1233 z m 138 0 l 244 0 l 244 797 l 872 0 l 960 0 l 960 972 l 853 972 l 853 193 l 240 972 l 138 972 z "},"ń":{"ha":856,"x_min":0,"x_max":0,"o":"m 389 826 l 472 826 l 631 976 l 519 1028 z m 119 0 l 226 0 l 226 411 b 442 636 226 546 318 636 b 640 419 568 636 640 553 l 640 0 l 747 0 l 747 446 b 472 733 747 617 646 733 b 226 593 349 733 274 671 l 226 718 l 119 718 z "},"Ň":{"ha":1097,"x_min":0,"x_max":0,"o":"m 751 1218 l 654 1218 l 550 1135 l 446 1218 l 346 1218 l 499 1054 l 599 1054 z m 138 0 l 244 0 l 244 797 l 872 0 l 960 0 l 960 972 l 853 972 l 853 193 l 240 972 l 138 972 z "},"ň":{"ha":856,"x_min":0,"x_max":0,"o":"m 626 1008 l 538 1008 l 433 915 l 329 1008 l 238 1008 l 385 826 l 479 826 z m 119 0 l 226 0 l 226 411 b 442 636 226 546 318 636 b 640 419 568 636 640 553 l 640 0 l 747 0 l 747 446 b 472 733 747 617 646 733 b 226 593 349 733 274 671 l 226 718 l 119 718 z "},"Ņ":{"ha":1097,"x_min":0,"x_max":0,"o":"m 465 -331 b 610 -189 561 -321 610 -276 l 610 -90 l 485 -90 l 485 -206 l 540 -206 b 456 -289 544 -253 518 -278 z m 138 0 l 244 0 l 244 797 l 872 0 l 960 0 l 960 972 l 853 972 l 853 193 l 240 972 l 138 972 z "},"ņ":{"ha":856,"x_min":0,"x_max":0,"o":"m 349 -337 b 493 -196 444 -328 493 -283 l 493 -97 l 368 -97 l 368 -212 l 424 -212 b 339 -296 428 -260 401 -285 z m 119 0 l 226 0 l 226 411 b 442 636 226 546 318 636 b 640 419 568 636 640 553 l 640 0 l 747 0 l 747 446 b 472 733 747 617 646 733 b 226 593 349 733 274 671 l 226 718 l 119 718 z "},"Ñ":{"ha":1097,"x_min":0,"x_max":0,"o":"m 650 1054 b 781 1194 715 1054 753 1099 l 713 1214 b 640 1149 692 1168 676 1149 b 561 1172 619 1149 590 1161 b 454 1203 524 1188 488 1203 b 324 1061 389 1203 351 1157 l 392 1042 b 464 1108 413 1089 428 1108 b 543 1085 486 1108 515 1096 b 650 1054 581 1069 618 1054 z m 138 0 l 244 0 l 244 797 l 872 0 l 960 0 l 960 972 l 853 972 l 853 193 l 240 972 l 138 972 z "},"ñ":{"ha":856,"x_min":0,"x_max":0,"o":"m 119 0 l 226 0 l 226 411 b 442 636 226 546 318 636 b 640 419 568 636 640 553 l 640 0 l 747 0 l 747 446 b 472 733 747 617 646 733 b 226 593 349 733 274 671 l 226 718 l 119 718 z m 533 826 b 665 972 600 826 638 868 l 600 990 b 528 922 579 940 564 922 b 442 950 504 922 472 936 b 342 978 407 964 374 978 b 210 832 275 978 238 936 l 275 814 b 347 882 296 864 311 882 b 433 856 371 882 403 868 b 533 826 468 840 501 826 z "},"Ó":{"ha":1181,"x_min":0,"x_max":0,"o":"m 546 1072 l 635 1072 l 794 1201 l 685 1251 z m 589 -17 b 1086 486 885 -17 1086 218 l 1086 489 b 592 989 1086 757 888 989 b 94 486 296 989 94 754 l 94 483 b 589 -17 94 215 293 -17 z m 592 85 b 208 486 369 85 208 265 l 208 489 b 589 888 208 710 367 888 b 972 486 811 888 972 707 l 972 483 b 592 85 972 263 814 85 z "},"ó":{"ha":897,"x_min":0,"x_max":0,"o":"m 406 826 l 489 826 l 647 976 l 536 1028 z m 447 -17 b 824 358 664 -17 824 156 l 824 361 b 450 733 824 564 665 733 b 75 358 233 733 75 561 l 75 356 b 447 -17 75 153 232 -17 z m 450 79 b 185 358 299 79 185 204 l 185 361 b 447 639 185 513 292 639 b 714 358 599 639 714 513 l 714 356 b 450 79 714 204 606 79 z "},"Ŏ":{"ha":1181,"x_min":0,"x_max":0,"o":"m 590 1069 b 796 1228 706 1069 788 1128 l 713 1228 b 590 1156 697 1183 658 1156 b 468 1228 522 1156 483 1183 l 385 1228 b 590 1069 393 1128 475 1069 z m 589 -17 b 1086 486 885 -17 1086 218 l 1086 489 b 592 989 1086 757 888 989 b 94 486 296 989 94 754 l 94 483 b 589 -17 94 215 293 -17 z m 592 85 b 208 486 369 85 208 265 l 208 489 b 589 888 208 710 367 888 b 972 486 811 888 972 707 l 972 483 b 592 85 972 263 814 85 z "},"ŏ":{"ha":897,"x_min":0,"x_max":0,"o":"m 447 -17 b 824 358 664 -17 824 156 l 824 361 b 450 733 824 564 665 733 b 75 358 233 733 75 561 l 75 356 b 447 -17 75 153 232 -17 z m 450 79 b 185 358 299 79 185 204 l 185 361 b 447 639 185 513 292 639 b 714 358 599 639 714 513 l 714 356 b 450 79 714 204 606 79 z m 449 824 b 654 997 564 824 646 888 l 576 997 b 449 910 560 946 519 910 b 321 997 378 910 338 946 l 243 997 b 449 824 251 888 333 824 z "},"Ô":{"ha":1181,"x_min":0,"x_max":0,"o":"m 589 -17 b 1086 486 885 -17 1086 218 l 1086 489 b 592 989 1086 757 888 989 b 94 486 296 989 94 754 l 94 483 b 589 -17 94 215 293 -17 z m 592 85 b 208 486 369 85 208 265 l 208 489 b 589 888 208 710 367 888 b 972 486 811 888 972 707 l 972 483 b 592 85 972 263 814 85 z m 388 1072 l 485 1072 l 589 1156 l 693 1072 l 793 1072 l 640 1236 l 540 1236 z "},"ô":{"ha":897,"x_min":0,"x_max":0,"o":"m 254 826 l 343 826 l 447 919 l 551 826 l 643 826 l 496 1008 l 401 1008 z m 447 -17 b 824 358 664 -17 824 156 l 824 361 b 450 733 824 564 665 733 b 75 358 233 733 75 561 l 75 356 b 447 -17 75 153 232 -17 z m 450 79 b 185 358 299 79 185 204 l 185 361 b 447 639 185 513 292 639 b 714 358 599 639 714 513 l 714 356 b 450 79 714 204 606 79 z "},"Ö":{"ha":1181,"x_min":0,"x_max":0,"o":"m 656 1072 l 785 1072 l 785 1197 l 656 1197 z m 396 1072 l 525 1072 l 525 1197 l 396 1197 z m 589 -17 b 1086 486 885 -17 1086 218 l 1086 489 b 592 989 1086 757 888 989 b 94 486 296 989 94 754 l 94 483 b 589 -17 94 215 293 -17 z m 592 85 b 208 486 369 85 208 265 l 208 489 b 589 888 208 710 367 888 b 972 486 811 888 972 707 l 972 483 b 592 85 972 263 814 85 z "},"ö":{"ha":897,"x_min":0,"x_max":0,"o":"m 508 826 l 632 826 l 632 958 l 508 958 z m 265 826 l 389 826 l 389 958 l 265 958 z m 447 -17 b 824 358 664 -17 824 156 l 824 361 b 450 733 824 564 665 733 b 75 358 233 733 75 561 l 75 356 b 447 -17 75 153 232 -17 z m 450 79 b 185 358 299 79 185 204 l 185 361 b 447 639 185 513 292 639 b 714 358 599 639 714 513 l 714 356 b 450 79 714 204 606 79 z "},"Œ":{"ha":1571,"x_min":0,"x_max":0,"o":"m 611 0 l 1488 0 l 1488 100 l 913 100 l 913 440 l 1418 440 l 1418 540 l 913 540 l 913 872 l 1481 872 l 1481 972 l 611 972 b 94 486 306 972 94 760 l 94 483 b 611 0 94 210 306 0 z m 611 101 b 208 486 365 101 208 271 l 208 489 b 611 871 208 704 365 871 l 803 871 l 803 101 z "},"œ":{"ha":1457,"x_min":0,"x_max":0,"o":"m 443 -17 b 760 176 585 -17 701 64 b 1069 -17 818 57 936 -17 b 1364 118 1204 -17 1293 38 l 1297 178 b 1071 76 1239 117 1169 76 b 819 319 944 76 833 164 l 1388 319 b 1389 354 1389 332 1389 340 b 1056 733 1389 564 1267 733 b 761 543 924 733 815 657 b 447 733 703 656 588 733 b 75 358 236 733 75 561 l 75 356 b 443 -17 75 153 235 -17 z m 818 399 b 1053 643 832 539 926 643 b 1281 399 1194 643 1269 529 z m 449 79 b 185 358 299 79 185 204 l 185 361 b 446 639 185 513 292 639 b 710 358 596 639 710 513 l 710 356 b 449 79 710 204 603 79 z "},"Ò":{"ha":1181,"x_min":0,"x_max":0,"o":"m 635 1072 l 494 1251 l 386 1201 l 546 1072 z m 589 -17 b 1086 486 885 -17 1086 218 l 1086 489 b 592 989 1086 757 888 989 b 94 486 296 989 94 754 l 94 483 b 589 -17 94 215 293 -17 z m 592 85 b 208 486 369 85 208 265 l 208 489 b 589 888 208 710 367 888 b 972 486 811 888 972 707 l 972 483 b 592 85 972 263 814 85 z "},"ò":{"ha":897,"x_min":0,"x_max":0,"o":"m 447 -17 b 824 358 664 -17 824 156 l 824 361 b 450 733 824 564 665 733 b 75 358 233 733 75 561 l 75 356 b 447 -17 75 153 232 -17 z m 450 79 b 185 358 299 79 185 204 l 185 361 b 447 639 185 513 292 639 b 714 358 599 639 714 513 l 714 356 b 450 79 714 204 606 79 z m 408 826 l 492 826 l 361 1028 l 250 976 z "},"Ő":{"ha":1181,"x_min":0,"x_max":0,"o":"m 589 -17 b 1086 486 885 -17 1086 218 l 1086 489 b 592 989 1086 757 888 989 b 94 486 296 989 94 754 l 94 483 b 589 -17 94 215 293 -17 z m 592 85 b 208 486 369 85 208 265 l 208 489 b 589 888 208 710 367 888 b 972 486 811 888 972 707 l 972 483 b 592 85 972 263 814 85 z m 426 1072 l 513 1072 l 672 1201 l 565 1251 z m 639 1072 l 726 1072 l 886 1201 l 779 1251 z "},"ő":{"ha":897,"x_min":0,"x_max":0,"o":"m 497 826 l 581 826 l 733 976 l 629 1028 z m 290 826 l 374 826 l 525 976 l 421 1028 z m 447 -17 b 824 358 664 -17 824 156 l 824 361 b 450 733 824 564 665 733 b 75 358 233 733 75 561 l 75 356 b 447 -17 75 153 232 -17 z m 450 79 b 185 358 299 79 185 204 l 185 361 b 447 639 185 513 292 639 b 714 358 599 639 714 513 l 714 356 b 450 79 714 204 606 79 z "},"Ō":{"ha":1181,"x_min":0,"x_max":0,"o":"m 363 1101 l 818 1101 l 818 1190 l 363 1190 z m 589 -17 b 1086 486 885 -17 1086 218 l 1086 489 b 592 989 1086 757 888 989 b 94 486 296 989 94 754 l 94 483 b 589 -17 94 215 293 -17 z m 592 85 b 208 486 369 85 208 265 l 208 489 b 589 888 208 710 367 888 b 972 486 811 888 972 707 l 972 483 b 592 85 972 263 814 85 z "},"ō":{"ha":897,"x_min":0,"x_max":0,"o":"m 232 854 l 665 854 l 665 942 l 232 942 z m 447 -17 b 824 358 664 -17 824 156 l 824 361 b 450 733 824 564 665 733 b 75 358 233 733 75 561 l 75 356 b 447 -17 75 153 232 -17 z m 450 79 b 185 358 299 79 185 204 l 185 361 b 447 639 185 513 292 639 b 714 358 599 639 714 513 l 714 356 b 450 79 714 204 606 79 z "},"Ø":{"ha":1181,"x_min":0,"x_max":0,"o":"m 982 979 l 896 888 b 592 989 815 950 711 989 b 94 486 296 989 94 754 l 94 483 b 219 143 94 354 140 233 l 83 -7 l 199 -7 l 283 85 b 589 -17 365 21 468 -17 b 1086 486 885 -17 1086 218 l 1086 489 b 960 828 1086 617 1040 738 l 1097 979 z m 207 488 l 207 489 b 589 890 207 711 365 890 b 826 807 681 890 763 858 l 294 224 b 207 488 239 294 207 388 z m 592 82 b 353 165 499 82 417 113 l 885 747 b 974 485 940 676 974 585 l 974 483 b 592 82 974 261 815 82 z "},"ø":{"ha":897,"x_min":0,"x_max":0,"o":"m 736 726 l 674 660 b 450 733 613 706 536 733 b 75 358 233 733 75 561 l 75 356 b 164 111 75 263 107 176 l 54 -7 l 161 -7 l 222 57 b 447 -17 283 11 360 -17 b 824 358 664 -17 824 156 l 824 361 b 732 607 824 454 790 540 l 844 726 z m 450 76 b 289 132 388 76 333 97 l 661 531 b 715 357 696 483 715 422 l 715 356 b 450 76 715 203 608 76 z m 182 361 b 447 640 182 514 290 640 b 608 585 508 640 564 619 l 236 186 b 182 361 201 235 182 294 z "},"Ǿ":{"ha":1181,"x_min":0,"x_max":0,"o":"m 982 979 l 896 888 b 592 989 815 950 711 989 b 94 486 296 989 94 754 l 94 483 b 219 143 94 354 140 233 l 83 -7 l 199 -7 l 283 85 b 589 -17 365 21 468 -17 b 1086 486 885 -17 1086 218 l 1086 489 b 960 828 1086 617 1040 738 l 1097 979 z m 207 488 l 207 489 b 589 890 207 711 365 890 b 826 807 681 890 763 858 l 294 224 b 207 488 239 294 207 388 z m 592 82 b 353 165 499 82 417 113 l 885 747 b 974 485 940 676 974 585 l 974 483 b 592 82 974 261 815 82 z m 546 1072 l 635 1072 l 794 1201 l 685 1251 z "},"ǿ":{"ha":897,"x_min":0,"x_max":0,"o":"m 736 726 l 674 660 b 450 733 613 706 536 733 b 75 358 233 733 75 561 l 75 356 b 164 111 75 263 107 176 l 54 -7 l 161 -7 l 222 57 b 447 -17 283 11 360 -17 b 824 358 664 -17 824 156 l 824 361 b 732 607 824 454 790 540 l 844 726 z m 450 76 b 289 132 388 76 333 97 l 661 531 b 715 357 696 483 715 422 l 715 356 b 450 76 715 203 608 76 z m 182 361 b 447 640 182 514 290 640 b 608 585 508 640 564 619 l 236 186 b 182 361 201 235 182 294 z m 406 826 l 489 826 l 647 976 l 536 1028 z "},"Õ":{"ha":1181,"x_min":0,"x_max":0,"o":"m 692 1072 b 822 1213 757 1072 794 1117 l 754 1232 b 682 1167 733 1186 718 1167 b 603 1190 661 1167 632 1179 b 496 1221 565 1206 529 1221 b 365 1079 431 1221 393 1175 l 433 1060 b 506 1126 454 1107 469 1126 b 585 1103 528 1126 557 1114 b 692 1072 622 1088 660 1072 z m 589 -17 b 1086 486 885 -17 1086 218 l 1086 489 b 592 989 1086 757 888 989 b 94 486 296 989 94 754 l 94 483 b 589 -17 94 215 293 -17 z m 592 85 b 208 486 369 85 208 265 l 208 489 b 589 888 208 710 367 888 b 972 486 811 888 972 707 l 972 483 b 592 85 972 263 814 85 z "},"õ":{"ha":897,"x_min":0,"x_max":0,"o":"m 447 -17 b 824 358 664 -17 824 156 l 824 361 b 450 733 824 564 665 733 b 75 358 233 733 75 561 l 75 356 b 447 -17 75 153 232 -17 z m 450 79 b 185 358 299 79 185 204 l 185 361 b 447 639 185 513 292 639 b 714 358 599 639 714 513 l 714 356 b 450 79 714 204 606 79 z m 549 826 b 681 972 615 826 653 868 l 615 990 b 543 922 594 940 579 922 b 457 950 519 922 488 936 b 357 978 422 964 389 978 b 225 832 290 978 253 936 l 290 814 b 363 882 311 864 326 882 b 449 856 386 882 418 868 b 549 826 483 840 517 826 z "},"Ŕ":{"ha":1004,"x_min":0,"x_max":0,"o":"m 138 0 l 247 0 l 247 378 l 525 378 l 807 0 l 942 0 l 643 397 b 907 681 796 425 907 519 l 907 683 b 832 875 907 760 879 828 b 556 972 771 936 675 972 l 138 972 z m 247 476 l 247 871 l 547 871 b 796 679 704 871 796 799 l 796 676 b 546 476 796 551 692 476 z m 443 1058 l 532 1058 l 692 1188 l 582 1238 z "},"ŕ":{"ha":563,"x_min":0,"x_max":0,"o":"m 256 826 l 339 826 l 497 976 l 386 1028 z m 119 0 l 226 0 l 226 286 b 511 615 226 503 354 615 l 519 615 l 519 731 b 226 531 383 736 279 650 l 226 718 l 119 718 z "},"Ř":{"ha":1004,"x_min":0,"x_max":0,"o":"m 138 0 l 247 0 l 247 378 l 525 378 l 807 0 l 942 0 l 643 397 b 907 681 796 425 907 519 l 907 683 b 832 875 907 760 879 828 b 556 972 771 936 675 972 l 138 972 z m 247 476 l 247 871 l 547 871 b 796 679 704 871 796 799 l 796 676 b 546 476 796 551 692 476 z m 690 1222 l 593 1222 l 489 1139 l 385 1222 l 285 1222 l 438 1058 l 538 1058 z "},"ř":{"ha":563,"x_min":0,"x_max":0,"o":"m 494 1008 l 406 1008 l 301 915 l 197 1008 l 106 1008 l 253 826 l 347 826 z m 119 0 l 226 0 l 226 286 b 511 615 226 503 354 615 l 519 615 l 519 731 b 226 531 383 736 279 650 l 226 718 l 119 718 z "},"Ŗ":{"ha":1004,"x_min":0,"x_max":0,"o":"m 138 0 l 247 0 l 247 378 l 525 378 l 807 0 l 942 0 l 643 397 b 907 681 796 425 907 519 l 907 683 b 832 875 907 760 879 828 b 556 972 771 936 675 972 l 138 972 z m 247 476 l 247 871 l 547 871 b 796 679 704 871 796 799 l 796 676 b 546 476 796 551 692 476 z m 404 -331 b 549 -189 500 -321 549 -276 l 549 -90 l 424 -90 l 424 -206 l 479 -206 b 394 -289 483 -253 457 -278 z "},"ŗ":{"ha":563,"x_min":0,"x_max":0,"o":"m 101 -337 b 246 -196 197 -328 246 -283 l 246 -97 l 121 -97 l 121 -212 l 176 -212 b 92 -296 181 -260 154 -285 z m 119 0 l 226 0 l 226 286 b 511 615 226 503 354 615 l 519 615 l 519 731 b 226 531 383 736 279 650 l 226 718 l 119 718 z "},"Ś":{"ha":889,"x_min":0,"x_max":0,"o":"m 471 -14 b 803 261 664 -14 803 94 l 803 264 b 486 539 803 413 703 492 b 222 728 272 585 222 636 l 222 731 b 429 888 222 818 303 888 b 710 782 529 888 619 856 l 774 867 b 432 986 675 946 574 986 b 113 721 247 986 113 874 l 113 718 b 439 438 113 558 215 486 b 692 253 643 394 692 343 l 692 250 b 475 85 692 154 606 85 b 142 222 340 85 243 131 l 74 142 b 471 -14 190 38 317 -14 z m 410 1072 l 499 1072 l 658 1201 l 549 1251 z "},"ś":{"ha":692,"x_min":0,"x_max":0,"o":"m 307 826 l 390 826 l 549 976 l 438 1028 z m 357 -14 b 613 201 500 -14 613 65 l 613 204 b 382 410 613 333 493 376 b 197 533 286 439 197 465 l 197 536 b 336 640 197 596 251 640 b 549 571 406 640 482 614 l 597 651 b 339 731 524 700 426 731 b 94 525 197 731 94 649 l 94 522 b 332 319 94 390 219 351 b 511 193 426 293 511 265 l 511 190 b 363 76 511 121 449 76 b 114 168 278 76 192 110 l 60 92 b 357 -14 140 26 254 -14 z "},"Š":{"ha":889,"x_min":0,"x_max":0,"o":"m 471 -14 b 803 261 664 -14 803 94 l 803 264 b 486 539 803 413 703 492 b 222 728 272 585 222 636 l 222 731 b 429 888 222 818 303 888 b 710 782 529 888 619 856 l 774 867 b 432 986 675 946 574 986 b 113 721 247 986 113 874 l 113 718 b 439 438 113 558 215 486 b 692 253 643 394 692 343 l 692 250 b 475 85 692 154 606 85 b 142 222 340 85 243 131 l 74 142 b 471 -14 190 38 317 -14 z m 656 1236 l 558 1236 l 454 1153 l 350 1236 l 250 1236 l 403 1072 l 503 1072 z "},"š":{"ha":692,"x_min":0,"x_max":0,"o":"m 544 1008 l 456 1008 l 351 915 l 247 1008 l 156 1008 l 303 826 l 397 826 z m 357 -14 b 613 201 500 -14 613 65 l 613 204 b 382 410 613 333 493 376 b 197 533 286 439 197 465 l 197 536 b 336 640 197 596 251 640 b 549 571 406 640 482 614 l 597 651 b 339 731 524 700 426 731 b 94 525 197 731 94 649 l 94 522 b 332 319 94 390 219 351 b 511 193 426 293 511 265 l 511 190 b 363 76 511 121 449 76 b 114 168 278 76 192 110 l 60 92 b 357 -14 140 26 254 -14 z "},"Ş":{"ha":889,"x_min":0,"x_max":0,"o":"m 410 -215 l 503 -12 b 803 261 679 0 803 104 l 803 264 b 486 539 803 413 703 492 b 222 728 272 585 222 636 l 222 731 b 429 888 222 818 303 888 b 710 782 529 888 619 856 l 774 867 b 432 986 675 946 574 986 b 113 721 247 986 113 874 l 113 718 b 439 438 113 558 215 486 b 692 253 643 394 692 343 l 692 250 b 475 85 692 154 606 85 b 142 222 340 85 243 131 l 74 142 b 413 -11 175 50 285 0 l 306 -168 z "},"ş":{"ha":692,"x_min":0,"x_max":0,"o":"m 292 -215 l 385 -12 b 613 201 514 -3 613 74 l 613 204 b 382 410 613 333 493 376 b 197 533 286 439 197 465 l 197 536 b 336 640 197 596 251 640 b 549 571 406 640 482 614 l 597 651 b 339 731 524 700 426 731 b 94 525 197 731 94 649 l 94 522 b 332 319 94 390 219 351 b 511 193 426 293 511 265 l 511 190 b 363 76 511 121 449 76 b 114 168 278 76 192 110 l 60 92 b 296 -10 125 39 211 1 l 188 -168 z "},"Ș":{"ha":889,"x_min":0,"x_max":0,"o":"m 371 -339 b 515 -197 467 -329 515 -285 l 515 -99 l 390 -99 l 390 -214 l 446 -214 b 361 -297 450 -261 424 -286 z m 471 -14 b 803 261 664 -14 803 94 l 803 264 b 486 539 803 413 703 492 b 222 728 272 585 222 636 l 222 731 b 429 888 222 818 303 888 b 710 782 529 888 619 856 l 774 867 b 432 986 675 946 574 986 b 113 721 247 986 113 874 l 113 718 b 439 438 113 558 215 486 b 692 253 643 394 692 343 l 692 250 b 475 85 692 154 606 85 b 142 222 340 85 243 131 l 74 142 b 471 -14 190 38 317 -14 z "},"ș":{"ha":692,"x_min":0,"x_max":0,"o":"m 267 -337 b 411 -196 363 -328 411 -283 l 411 -97 l 286 -97 l 286 -212 l 342 -212 b 257 -296 346 -260 319 -285 z m 357 -14 b 613 201 500 -14 613 65 l 613 204 b 382 410 613 333 493 376 b 197 533 286 439 197 465 l 197 536 b 336 640 197 596 251 640 b 549 571 406 640 482 614 l 597 651 b 339 731 524 700 426 731 b 94 525 197 731 94 649 l 94 522 b 332 319 94 390 219 351 b 511 193 426 293 511 265 l 511 190 b 363 76 511 121 449 76 b 114 168 278 76 192 110 l 60 92 b 357 -14 140 26 254 -14 z "},"Ť":{"ha":900,"x_min":0,"x_max":0,"o":"m 653 1222 l 556 1222 l 451 1139 l 347 1222 l 247 1222 l 400 1058 l 500 1058 z m 394 0 l 506 0 l 506 871 l 832 871 l 832 972 l 68 972 l 68 871 l 394 871 z "},"ť":{"ha":561,"x_min":0,"x_max":0,"o":"m 381 811 l 432 811 l 504 1036 l 504 1040 l 401 1040 z m 360 -12 b 489 18 411 -12 451 -1 l 489 110 b 385 85 451 92 421 85 b 264 204 313 85 264 117 l 264 624 l 492 624 l 492 718 l 264 718 l 264 935 l 157 935 l 157 718 l 57 718 l 57 624 l 157 624 l 157 190 b 360 -12 157 44 244 -12 z "},"Ţ":{"ha":900,"x_min":0,"x_max":0,"o":"m 367 -337 b 511 -196 463 -328 511 -283 l 511 -97 l 386 -97 l 386 -212 l 442 -212 b 357 -296 446 -260 419 -285 z m 394 0 l 506 0 l 506 871 l 832 871 l 832 972 l 68 972 l 68 871 l 394 871 z "},"ţ":{"ha":561,"x_min":0,"x_max":0,"o":"m 231 -337 b 375 -196 326 -328 375 -283 l 375 -97 l 250 -97 l 250 -212 l 306 -212 b 221 -296 310 -260 283 -285 z m 360 -12 b 489 18 411 -12 451 -1 l 489 110 b 385 85 451 92 421 85 b 264 204 313 85 264 117 l 264 624 l 492 624 l 492 718 l 264 718 l 264 935 l 157 935 l 157 718 l 57 718 l 57 624 l 157 624 l 157 190 b 360 -12 157 44 244 -12 z "},"Þ":{"ha":935,"x_min":0,"x_max":0,"o":"m 138 0 l 247 0 l 247 175 l 483 175 b 865 494 690 175 865 285 l 865 497 b 501 806 865 688 721 806 l 247 806 l 247 972 l 138 972 z m 247 275 l 247 704 l 493 704 b 754 493 650 704 754 632 l 754 490 b 488 275 754 363 649 275 z "},"þ":{"ha":922,"x_min":0,"x_max":0,"o":"m 119 -222 l 226 -222 l 226 138 b 501 -15 282 57 368 -15 b 844 358 675 -15 844 124 l 844 361 b 501 733 844 597 674 733 b 226 574 369 733 285 660 l 226 1014 l 119 1014 z m 482 81 b 222 358 349 81 222 192 l 222 361 b 482 638 222 525 349 638 b 735 360 618 638 735 529 l 735 357 b 482 81 735 183 621 81 z "},"Ú":{"ha":1054,"x_min":0,"x_max":0,"o":"m 482 1054 l 571 1054 l 731 1183 l 621 1233 z m 526 -15 b 932 415 769 -15 932 132 l 932 972 l 822 972 l 822 407 b 529 86 822 194 708 86 b 232 414 344 86 232 204 l 232 972 l 122 972 l 122 407 b 526 -15 122 132 286 -15 z "},"ú":{"ha":856,"x_min":0,"x_max":0,"o":"m 378 826 l 461 826 l 619 976 l 508 1028 z m 383 -15 b 629 125 507 -15 581 47 l 629 0 l 735 0 l 735 718 l 629 718 l 629 307 b 414 82 629 172 536 82 b 215 299 288 82 215 165 l 215 718 l 108 718 l 108 272 b 383 -15 108 101 210 -15 z "},"Ŭ":{"ha":1054,"x_min":0,"x_max":0,"o":"m 526 1047 b 732 1206 642 1047 724 1106 l 649 1206 b 526 1133 633 1161 594 1133 b 404 1206 458 1133 419 1161 l 321 1206 b 526 1047 329 1106 411 1047 z m 526 -15 b 932 415 769 -15 932 132 l 932 972 l 822 972 l 822 407 b 529 86 822 194 708 86 b 232 414 344 86 232 204 l 232 972 l 122 972 l 122 407 b 526 -15 122 132 286 -15 z "},"ŭ":{"ha":856,"x_min":0,"x_max":0,"o":"m 383 -15 b 629 125 507 -15 581 47 l 629 0 l 735 0 l 735 718 l 629 718 l 629 307 b 414 82 629 172 536 82 b 215 299 288 82 215 165 l 215 718 l 108 718 l 108 272 b 383 -15 108 101 210 -15 z m 421 824 b 626 997 536 824 618 888 l 549 997 b 421 910 532 946 492 910 b 293 997 350 910 310 946 l 215 997 b 421 824 224 888 306 824 z "},"Û":{"ha":1054,"x_min":0,"x_max":0,"o":"m 526 -15 b 932 415 769 -15 932 132 l 932 972 l 822 972 l 822 407 b 529 86 822 194 708 86 b 232 414 344 86 232 204 l 232 972 l 122 972 l 122 407 b 526 -15 122 132 286 -15 z m 324 1054 l 421 1054 l 525 1138 l 629 1054 l 729 1054 l 576 1218 l 476 1218 z "},"û":{"ha":856,"x_min":0,"x_max":0,"o":"m 226 826 l 315 826 l 419 919 l 524 826 l 615 826 l 468 1008 l 374 1008 z m 383 -15 b 629 125 507 -15 581 47 l 629 0 l 735 0 l 735 718 l 629 718 l 629 307 b 414 82 629 172 536 82 b 215 299 288 82 215 165 l 215 718 l 108 718 l 108 272 b 383 -15 108 101 210 -15 z "},"Ü":{"ha":1054,"x_min":0,"x_max":0,"o":"m 593 1054 l 722 1054 l 722 1179 l 593 1179 z m 333 1054 l 463 1054 l 463 1179 l 333 1179 z m 526 -15 b 932 415 769 -15 932 132 l 932 972 l 822 972 l 822 407 b 529 86 822 194 708 86 b 232 414 344 86 232 204 l 232 972 l 122 972 l 122 407 b 526 -15 122 132 286 -15 z "},"ü":{"ha":856,"x_min":0,"x_max":0,"o":"m 481 826 l 604 826 l 604 958 l 481 958 z m 238 826 l 361 826 l 361 958 l 238 958 z m 383 -15 b 629 125 507 -15 581 47 l 629 0 l 735 0 l 735 718 l 629 718 l 629 307 b 414 82 629 172 536 82 b 215 299 288 82 215 165 l 215 718 l 108 718 l 108 272 b 383 -15 108 101 210 -15 z "},"Ù":{"ha":1054,"x_min":0,"x_max":0,"o":"m 571 1054 l 431 1233 l 322 1183 l 482 1054 z m 526 -15 b 932 415 769 -15 932 132 l 932 972 l 822 972 l 822 407 b 529 86 822 194 708 86 b 232 414 344 86 232 204 l 232 972 l 122 972 l 122 407 b 526 -15 122 132 286 -15 z "},"ù":{"ha":856,"x_min":0,"x_max":0,"o":"m 383 -15 b 629 125 507 -15 581 47 l 629 0 l 735 0 l 735 718 l 629 718 l 629 307 b 414 82 629 172 536 82 b 215 299 288 82 215 165 l 215 718 l 108 718 l 108 272 b 383 -15 108 101 210 -15 z m 381 826 l 464 826 l 333 1028 l 222 976 z "},"Ű":{"ha":1054,"x_min":0,"x_max":0,"o":"m 526 -15 b 932 415 769 -15 932 132 l 932 972 l 822 972 l 822 407 b 529 86 822 194 708 86 b 232 414 344 86 232 204 l 232 972 l 122 972 l 122 407 b 526 -15 122 132 286 -15 z m 364 1054 l 450 1054 l 610 1183 l 503 1233 z m 576 1054 l 664 1054 l 824 1183 l 717 1233 z "},"ű":{"ha":856,"x_min":0,"x_max":0,"o":"m 383 -15 b 629 125 507 -15 581 47 l 629 0 l 735 0 l 735 718 l 629 718 l 629 307 b 414 82 629 172 536 82 b 215 299 288 82 215 165 l 215 718 l 108 718 l 108 272 b 383 -15 108 101 210 -15 z m 469 826 l 553 826 l 706 976 l 601 1028 z m 263 826 l 346 826 l 497 976 l 393 1028 z "},"Ū":{"ha":1054,"x_min":0,"x_max":0,"o":"m 299 1083 l 754 1083 l 754 1172 l 299 1172 z m 526 -15 b 932 415 769 -15 932 132 l 932 972 l 822 972 l 822 407 b 529 86 822 194 708 86 b 232 414 344 86 232 204 l 232 972 l 122 972 l 122 407 b 526 -15 122 132 286 -15 z "},"ū":{"ha":856,"x_min":0,"x_max":0,"o":"m 383 -15 b 629 125 507 -15 581 47 l 629 0 l 735 0 l 735 718 l 629 718 l 629 307 b 414 82 629 172 536 82 b 215 299 288 82 215 165 l 215 718 l 108 718 l 108 272 b 383 -15 108 101 210 -15 z m 204 854 l 638 854 l 638 942 l 204 942 z "},"Ų":{"ha":1054,"x_min":0,"x_max":0,"o":"m 617 -167 b 514 -101 544 -162 514 -140 b 565 -14 514 -71 529 -46 b 932 415 786 1 932 147 l 932 972 l 822 972 l 822 407 b 529 86 822 194 708 86 b 232 414 344 86 232 204 l 232 972 l 122 972 l 122 407 b 474 -12 122 151 263 7 b 422 -117 440 -46 422 -78 b 600 -229 422 -181 483 -226 b 617 -228 606 -229 611 -229 z "},"ų":{"ha":856,"x_min":0,"x_max":0,"o":"m 383 -15 b 629 125 507 -15 581 47 l 629 4 b 560 -117 585 -36 560 -71 b 738 -229 560 -181 621 -226 b 754 -228 743 -229 749 -229 l 754 -167 b 651 -101 682 -162 651 -140 b 718 0 651 -67 672 -39 l 735 0 l 735 718 l 629 718 l 629 307 b 414 82 629 172 536 82 b 215 299 288 82 215 165 l 215 718 l 108 718 l 108 272 b 383 -15 108 101 210 -15 z "},"Ů":{"ha":1054,"x_min":0,"x_max":0,"o":"m 526 -15 b 932 415 769 -15 932 132 l 932 972 l 822 972 l 822 407 b 529 86 822 194 708 86 b 232 414 344 86 232 204 l 232 972 l 122 972 l 122 407 b 526 -15 122 132 286 -15 z m 526 1032 b 681 1169 610 1032 681 1090 b 526 1307 681 1249 610 1307 b 372 1169 443 1307 372 1249 b 526 1032 372 1090 443 1032 z m 526 1085 b 433 1169 474 1085 433 1122 b 526 1254 433 1218 474 1254 b 619 1169 579 1254 619 1218 b 526 1085 619 1122 579 1085 z "},"ů":{"ha":856,"x_min":0,"x_max":0,"o":"m 421 808 b 572 954 504 808 572 874 b 421 1099 572 1033 504 1099 b 269 954 338 1099 269 1033 b 421 808 269 874 338 808 z m 421 858 b 325 954 369 858 325 901 b 421 1050 325 1006 369 1050 b 517 954 472 1050 517 1006 b 421 858 517 901 472 858 z m 383 -15 b 629 125 507 -15 581 47 l 629 0 l 735 0 l 735 718 l 629 718 l 629 307 b 414 82 629 172 536 82 b 215 299 288 82 215 165 l 215 718 l 108 718 l 108 272 b 383 -15 108 101 210 -15 z "},"Ẃ":{"ha":1538,"x_min":0,"x_max":0,"o":"m 724 1058 l 813 1058 l 972 1188 l 863 1238 z m 410 -7 l 501 -7 l 769 782 l 1036 -7 l 1129 -7 l 1476 972 l 1361 972 l 1083 163 l 817 975 l 726 975 l 460 163 l 182 972 l 63 972 z "},"ẃ":{"ha":1196,"x_min":0,"x_max":0,"o":"m 553 826 l 636 826 l 794 976 l 683 1028 z m 310 -6 l 404 -6 l 599 561 l 792 -6 l 885 -6 l 1138 718 l 1026 718 l 838 142 l 643 721 l 554 721 l 361 142 l 172 718 l 58 718 z "},"Ŵ":{"ha":1538,"x_min":0,"x_max":0,"o":"m 410 -7 l 501 -7 l 769 782 l 1036 -7 l 1129 -7 l 1476 972 l 1361 972 l 1083 163 l 817 975 l 726 975 l 460 163 l 182 972 l 63 972 z m 565 1058 l 663 1058 l 767 1142 l 871 1058 l 971 1058 l 818 1222 l 718 1222 z "},"ŵ":{"ha":1196,"x_min":0,"x_max":0,"o":"m 403 826 l 492 826 l 596 919 l 700 826 l 792 826 l 644 1008 l 550 1008 z m 310 -6 l 404 -6 l 599 561 l 792 -6 l 885 -6 l 1138 718 l 1026 718 l 838 142 l 643 721 l 554 721 l 361 142 l 172 718 l 58 718 z "},"Ẅ":{"ha":1538,"x_min":0,"x_max":0,"o":"m 835 1058 l 964 1058 l 964 1183 l 835 1183 z m 575 1058 l 704 1058 l 704 1183 l 575 1183 z m 410 -7 l 501 -7 l 769 782 l 1036 -7 l 1129 -7 l 1476 972 l 1361 972 l 1083 163 l 817 975 l 726 975 l 460 163 l 182 972 l 63 972 z "},"ẅ":{"ha":1196,"x_min":0,"x_max":0,"o":"m 657 826 l 781 826 l 781 958 l 657 958 z m 414 826 l 538 826 l 538 958 l 414 958 z m 310 -6 l 404 -6 l 599 561 l 792 -6 l 885 -6 l 1138 718 l 1026 718 l 838 142 l 643 721 l 554 721 l 361 142 l 172 718 l 58 718 z "},"Ẁ":{"ha":1538,"x_min":0,"x_max":0,"o":"m 814 1058 l 674 1238 l 565 1188 l 725 1058 z m 410 -7 l 501 -7 l 769 782 l 1036 -7 l 1129 -7 l 1476 972 l 1361 972 l 1083 163 l 817 975 l 726 975 l 460 163 l 182 972 l 63 972 z "},"ẁ":{"ha":1196,"x_min":0,"x_max":0,"o":"m 310 -6 l 404 -6 l 599 561 l 792 -6 l 885 -6 l 1138 718 l 1026 718 l 838 142 l 643 721 l 554 721 l 361 142 l 172 718 l 58 718 z m 557 826 l 640 826 l 510 1028 l 399 976 z "},"Ý":{"ha":994,"x_min":0,"x_max":0,"o":"m 442 0 l 553 0 l 553 386 l 957 972 l 829 972 l 499 486 l 171 972 l 38 972 l 442 385 z m 453 1054 l 542 1054 l 701 1183 l 592 1233 z "},"ý":{"ha":821,"x_min":0,"x_max":0,"o":"m 426 119 l 165 718 l 47 718 l 374 3 b 226 -132 331 -99 290 -132 b 114 -106 181 -132 149 -124 l 78 -190 b 231 -226 126 -214 171 -226 b 469 -24 339 -226 408 -172 l 771 718 l 657 718 z m 371 826 l 454 826 l 613 976 l 501 1028 z "},"Ŷ":{"ha":994,"x_min":0,"x_max":0,"o":"m 442 0 l 553 0 l 553 386 l 957 972 l 829 972 l 499 486 l 171 972 l 38 972 l 442 385 z m 294 1054 l 392 1054 l 496 1138 l 600 1054 l 700 1054 l 547 1218 l 447 1218 z "},"ŷ":{"ha":821,"x_min":0,"x_max":0,"o":"m 426 119 l 165 718 l 47 718 l 374 3 b 226 -132 331 -99 290 -132 b 114 -106 181 -132 149 -124 l 78 -190 b 231 -226 126 -214 171 -226 b 469 -24 339 -226 408 -172 l 771 718 l 657 718 z m 219 826 l 308 826 l 413 919 l 517 826 l 608 826 l 461 1008 l 367 1008 z "},"Ÿ":{"ha":994,"x_min":0,"x_max":0,"o":"m 442 0 l 553 0 l 553 386 l 957 972 l 829 972 l 499 486 l 171 972 l 38 972 l 442 385 z m 563 1054 l 692 1054 l 692 1179 l 563 1179 z m 303 1054 l 432 1054 l 432 1179 l 303 1179 z "},"ÿ":{"ha":821,"x_min":0,"x_max":0,"o":"m 426 119 l 165 718 l 47 718 l 374 3 b 226 -132 331 -99 290 -132 b 114 -106 181 -132 149 -124 l 78 -190 b 231 -226 126 -214 171 -226 b 469 -24 339 -226 408 -172 l 771 718 l 657 718 z m 474 826 l 597 826 l 597 958 l 474 958 z m 231 826 l 354 826 l 354 958 l 231 958 z "},"Ỳ":{"ha":994,"x_min":0,"x_max":0,"o":"m 442 0 l 553 0 l 553 386 l 957 972 l 829 972 l 499 486 l 171 972 l 38 972 l 442 385 z m 542 1054 l 401 1233 l 293 1183 l 453 1054 z "},"ỳ":{"ha":821,"x_min":0,"x_max":0,"o":"m 426 119 l 165 718 l 47 718 l 374 3 b 226 -132 331 -99 290 -132 b 114 -106 181 -132 149 -124 l 78 -190 b 231 -226 126 -214 171 -226 b 469 -24 339 -226 408 -172 l 771 718 l 657 718 z m 374 826 l 457 826 l 326 1028 l 215 976 z "},"Ź":{"ha":963,"x_min":0,"x_max":0,"o":"m 93 0 l 872 0 l 872 99 l 242 99 l 872 899 l 872 972 l 114 972 l 114 874 l 722 874 l 93 74 z m 449 1058 l 538 1058 l 697 1188 l 588 1238 z "},"ź":{"ha":772,"x_min":0,"x_max":0,"o":"m 349 826 l 432 826 l 590 976 l 479 1028 z m 78 0 l 700 0 l 700 90 l 222 90 l 700 650 l 700 718 l 94 718 l 94 628 l 554 628 l 78 68 z "},"Ž":{"ha":963,"x_min":0,"x_max":0,"o":"m 694 1222 l 597 1222 l 493 1139 l 389 1222 l 289 1222 l 442 1058 l 542 1058 z m 93 0 l 872 0 l 872 99 l 242 99 l 872 899 l 872 972 l 114 972 l 114 874 l 722 874 l 93 74 z "},"ž":{"ha":772,"x_min":0,"x_max":0,"o":"m 586 1008 l 497 1008 l 393 915 l 289 1008 l 197 1008 l 344 826 l 439 826 z m 78 0 l 700 0 l 700 90 l 222 90 l 700 650 l 700 718 l 94 718 l 94 628 l 554 628 l 78 68 z "},"Ż":{"ha":963,"x_min":0,"x_max":0,"o":"m 425 1058 l 558 1058 l 558 1183 l 425 1183 z m 93 0 l 872 0 l 872 99 l 242 99 l 872 899 l 872 972 l 114 972 l 114 874 l 722 874 l 93 74 z "},"ż":{"ha":772,"x_min":0,"x_max":0,"o":"m 78 0 l 700 0 l 700 90 l 222 90 l 700 650 l 700 718 l 94 718 l 94 628 l 554 628 l 78 68 z m 326 826 l 457 826 l 457 960 l 326 960 z "},"ə":{"ha":822,"x_min":0,"x_max":0,"o":"m 388 735 b 92 600 251 735 164 681 l 158 540 b 385 642 217 601 286 642 b 638 399 513 642 622 554 l 68 399 b 67 364 67 386 67 378 b 401 -15 67 154 189 -15 b 746 358 600 -15 746 151 l 746 361 b 388 735 746 583 585 735 z m 638 319 b 404 75 624 179 529 75 b 175 319 261 75 186 189 z "},"ß":{"ha":861,"x_min":0,"x_max":0,"o":"m 406 -3 b 781 267 636 -6 781 94 l 781 269 b 528 517 781 414 658 488 b 721 771 625 558 721 640 l 721 774 b 435 1024 721 914 610 1024 b 119 696 242 1024 119 892 l 119 0 l 226 0 l 226 697 b 429 929 226 839 311 929 b 611 767 538 929 611 863 l 611 764 b 406 539 611 650 522 582 l 406 460 b 671 269 567 443 671 381 l 671 267 b 406 83 671 150 569 88 z "},"ﬀ":{"ha":1021,"x_min":0,"x_max":0,"o":"m 160 0 l 267 0 l 267 624 l 493 624 l 493 715 l 265 715 l 265 774 b 390 926 265 876 307 926 b 494 908 426 926 456 919 l 494 1001 b 376 1019 460 1014 426 1019 b 222 964 311 1019 258 1000 b 160 779 182 924 160 861 l 160 717 l 61 717 l 61 624 l 160 624 z m 671 0 l 776 0 l 776 624 l 1003 624 l 1003 715 l 776 715 l 776 774 b 901 926 776 876 817 926 b 1004 908 938 926 967 919 l 1004 1001 b 886 1019 971 1014 936 1019 b 732 964 821 1019 769 1000 b 671 779 692 924 671 861 l 671 717 l 572 717 l 572 624 l 671 624 z "},"ﬁ":{"ha":876,"x_min":0,"x_max":0,"o":"m 160 0 l 267 0 l 267 624 l 493 624 l 493 715 l 265 715 l 265 774 b 390 926 265 876 307 926 b 494 908 426 926 456 919 l 494 1001 b 376 1019 460 1014 426 1019 b 222 964 311 1019 258 1000 b 160 779 182 924 160 861 l 160 717 l 61 717 l 61 624 l 160 624 z m 640 0 l 746 0 l 746 718 l 640 718 z m 632 875 l 754 875 l 754 993 l 632 993 z "},"ﬂ":{"ha":876,"x_min":0,"x_max":0,"o":"m 160 0 l 267 0 l 267 624 l 493 624 l 493 715 l 265 715 l 265 774 b 390 926 265 876 307 926 b 494 908 426 926 456 919 l 494 1001 b 376 1019 460 1014 426 1019 b 222 964 311 1019 258 1000 b 160 779 182 924 160 861 l 160 717 l 61 717 l 61 624 l 160 624 z m 640 0 l 746 0 l 746 1014 l 640 1014 z "},"ﬃ":{"ha":1386,"x_min":0,"x_max":0,"o":"m 160 0 l 267 0 l 267 624 l 493 624 l 493 715 l 265 715 l 265 774 b 390 926 265 876 307 926 b 494 908 426 926 456 919 l 494 1001 b 376 1019 460 1014 426 1019 b 222 964 311 1019 258 1000 b 160 779 182 924 160 861 l 160 717 l 61 717 l 61 624 l 160 624 z m 671 0 l 776 0 l 776 624 l 1003 624 l 1003 715 l 776 715 l 776 774 b 901 926 776 876 817 926 b 1004 908 938 926 967 919 l 1004 1001 b 886 1019 971 1014 936 1019 b 732 964 821 1019 769 1000 b 671 779 692 924 671 861 l 671 717 l 572 717 l 572 624 l 671 624 z m 1150 0 l 1257 0 l 1257 718 l 1150 718 z m 1143 875 l 1264 875 l 1264 993 l 1143 993 z "},"ﬄ":{"ha":1386,"x_min":0,"x_max":0,"o":"m 160 0 l 267 0 l 267 624 l 493 624 l 493 715 l 265 715 l 265 774 b 390 926 265 876 307 926 b 494 908 426 926 456 919 l 494 1001 b 376 1019 460 1014 426 1019 b 222 964 311 1019 258 1000 b 160 779 182 924 160 861 l 160 717 l 61 717 l 61 624 l 160 624 z m 671 0 l 776 0 l 776 624 l 1003 624 l 1003 715 l 776 715 l 776 774 b 901 926 776 876 817 926 b 1004 908 938 926 967 919 l 1004 1001 b 886 1019 971 1014 936 1019 b 732 964 821 1019 769 1000 b 671 779 692 924 671 861 l 671 717 l 572 717 l 572 624 l 671 624 z m 1150 0 l 1257 0 l 1257 1014 l 1150 1014 z "},".":{"ha":340,"x_min":0,"x_max":0,"o":"m 107 0 l 235 0 l 235 146 l 107 146 z "},",":{"ha":340,"x_min":0,"x_max":0,"o":"m 81 -169 b 235 21 186 -146 235 -92 l 235 146 l 107 146 l 107 0 l 157 0 b 64 -121 163 -60 133 -96 z "},":":{"ha":354,"x_min":0,"x_max":0,"o":"m 114 572 l 242 572 l 242 718 l 114 718 z m 114 0 l 242 0 l 242 146 l 114 146 z "},";":{"ha":354,"x_min":0,"x_max":0,"o":"m 114 572 l 242 572 l 242 718 l 114 718 z m 88 -169 b 242 21 193 -146 242 -92 l 242 146 l 114 146 l 114 0 l 164 0 b 71 -121 169 -60 140 -96 z "},"…":{"ha":1004,"x_min":0,"x_max":0,"o":"m 774 0 l 899 0 l 899 143 l 774 143 z m 440 0 l 564 0 l 564 143 l 440 143 z m 107 0 l 231 0 l 231 143 l 107 143 z "},"·":{"ha":340,"x_min":0,"x_max":0,"o":"m 107 344 l 235 344 l 235 492 l 107 492 z "},"•":{"ha":664,"x_min":0,"x_max":0,"o":"m 332 307 b 514 488 432 307 514 388 l 514 490 b 332 671 514 590 428 671 b 150 490 235 671 150 590 l 150 488 b 332 307 150 388 232 307 z "},"&":{"ha":967,"x_min":0,"x_max":0,"o":"m 839 -19 l 922 44 l 753 218 b 893 463 806 288 850 371 l 803 504 b 686 288 768 424 729 350 l 464 514 b 693 767 606 564 693 643 l 693 769 b 457 989 693 890 593 989 b 200 758 303 989 200 886 l 200 756 b 297 542 200 679 231 619 b 63 261 149 483 63 390 l 63 258 b 368 -14 63 96 193 -14 b 686 138 494 -14 597 42 z m 403 576 b 306 756 329 656 306 699 l 306 758 b 453 899 306 838 365 899 b 590 764 532 899 590 842 l 590 761 b 403 576 590 678 526 618 z m 376 79 b 174 263 257 79 174 158 l 174 265 b 360 474 174 347 231 426 l 619 206 b 376 79 549 128 468 79 z "},"!":{"ha":376,"x_min":0,"x_max":0,"o":"m 158 275 l 218 275 l 251 894 l 251 972 l 126 972 l 126 894 z m 125 0 l 253 0 l 253 146 l 125 146 z "},"¡":{"ha":376,"x_min":0,"x_max":0,"o":"m 125 826 l 253 826 l 253 972 l 125 972 z m 126 0 l 251 0 l 251 79 l 218 697 l 158 697 l 126 79 z "},"?":{"ha":746,"x_min":0,"x_max":0,"o":"m 306 275 l 376 275 l 390 425 b 679 707 549 447 679 533 l 679 710 b 368 985 679 868 556 985 b 42 824 219 985 121 919 l 113 756 b 365 886 183 838 263 886 b 568 706 490 886 568 806 l 568 703 b 292 507 568 586 472 511 l 285 500 z m 276 0 l 404 0 l 404 146 l 276 146 z "},"¿":{"ha":746,"x_min":0,"x_max":0,"o":"m 342 826 l 469 826 l 469 972 l 342 972 z m 378 -12 b 703 149 526 -12 624 53 l 632 217 b 381 86 563 135 482 86 b 178 267 256 86 178 167 l 178 269 b 454 465 178 386 274 461 l 461 472 l 439 697 l 368 697 l 356 547 b 67 265 197 525 67 439 l 67 263 b 378 -12 67 104 189 -12 z "},"“":{"ha":618,"x_min":0,"x_max":0,"o":"m 378 664 l 506 664 l 506 810 l 454 810 b 547 931 450 869 478 906 l 531 979 b 378 789 425 956 378 901 z m 100 664 l 228 664 l 228 810 l 176 810 b 269 931 172 869 200 906 l 253 979 b 100 789 147 956 100 901 z "},"”":{"ha":618,"x_min":0,"x_max":0,"o":"m 365 657 b 519 847 471 681 519 735 l 519 972 l 392 972 l 392 826 l 442 826 b 349 706 447 767 418 731 z m 88 657 b 242 847 193 681 242 735 l 242 972 l 114 972 l 114 826 l 164 826 b 71 706 169 767 140 731 z "},"‘":{"ha":340,"x_min":0,"x_max":0,"o":"m 100 664 l 228 664 l 228 810 l 176 810 b 269 931 172 869 200 906 l 253 979 b 100 789 147 956 100 901 z "},"’":{"ha":340,"x_min":0,"x_max":0,"o":"m 88 657 b 242 847 193 681 242 735 l 242 972 l 114 972 l 114 826 l 164 826 b 71 706 169 767 140 731 z "},"„":{"ha":618,"x_min":0,"x_max":0,"o":"m 358 -169 b 513 21 464 -146 513 -92 l 513 146 l 385 146 l 385 0 l 435 0 b 342 -121 440 -60 411 -96 z m 81 -169 b 235 21 186 -146 235 -92 l 235 146 l 107 146 l 107 0 l 157 0 b 64 -121 163 -60 133 -96 z "},"‚":{"ha":340,"x_min":0,"x_max":0,"o":"m 81 -169 b 235 21 186 -146 235 -92 l 235 146 l 107 146 l 107 0 l 157 0 b 64 -121 163 -60 133 -96 z "},"«":{"ha":764,"x_min":0,"x_max":0,"o":"m 606 58 l 682 103 l 499 361 l 682 615 l 606 660 l 376 365 l 376 354 z m 296 58 l 374 103 l 189 361 l 374 615 l 296 660 l 67 365 l 67 354 z "},"»":{"ha":764,"x_min":0,"x_max":0,"o":"m 468 58 l 697 354 l 697 365 l 468 660 l 390 615 l 575 358 l 390 103 z m 160 58 l 388 354 l 388 365 l 160 660 l 82 615 l 265 358 l 82 103 z "},"‹":{"ha":456,"x_min":0,"x_max":0,"o":"m 296 58 l 374 103 l 189 361 l 374 615 l 296 660 l 67 365 l 67 354 z "},"›":{"ha":456,"x_min":0,"x_max":0,"o":"m 160 58 l 388 354 l 388 365 l 160 660 l 82 615 l 265 358 l 82 103 z "},"-":{"ha":567,"x_min":0,"x_max":0,"o":"m 90 361 l 476 361 l 476 474 l 90 474 z "},"–":{"ha":733,"x_min":0,"x_max":0,"o":"m 90 364 l 643 364 l 643 471 l 90 471 z "},"—":{"ha":1247,"x_min":0,"x_max":0,"o":"m 90 364 l 1157 364 l 1157 471 l 90 471 z "},"_":{"ha":833,"x_min":0,"x_max":0,"o":"m -3 -222 l 836 -222 l 836 -135 l -3 -135 z "},"/":{"ha":706,"x_min":0,"x_max":0,"o":"m -29 -178 l 69 -178 l 714 1108 l 615 1108 z "},"\\":{"ha":706,"x_min":0,"x_max":0,"o":"m 636 -178 l 735 -178 l 90 1108 l -8 1108 z "},"|":{"ha":421,"x_min":0,"x_max":0,"o":"m 165 -178 l 256 -178 l 256 1108 l 165 1108 z "},"(":{"ha":603,"x_min":0,"x_max":0,"o":"m 479 -196 l 525 -125 b 203 399 314 10 203 176 b 525 922 203 621 314 788 l 479 993 b 94 399 232 854 94 654 b 479 -196 94 143 232 -57 z "},")":{"ha":603,"x_min":0,"x_max":0,"o":"m 124 -196 b 508 399 371 -57 508 143 b 124 993 508 654 371 854 l 78 922 b 400 399 289 788 400 621 b 78 -125 400 176 289 10 z "},"[":{"ha":610,"x_min":0,"x_max":0,"o":"m 131 -181 l 528 -181 l 528 -97 l 232 -97 l 232 889 l 528 889 l 528 972 l 131 972 z "},"]":{"ha":610,"x_min":0,"x_max":0,"o":"m 82 -181 l 481 -181 l 481 972 l 82 972 l 82 889 l 379 889 l 379 -97 l 82 -97 z "},"{":{"ha":671,"x_min":0,"x_max":0,"o":"m 578 -196 l 594 -125 b 378 99 400 -75 378 -26 b 379 203 378 126 379 174 b 235 399 379 319 328 368 b 379 594 324 426 379 478 b 378 699 379 624 378 671 b 594 922 378 824 400 872 l 578 993 b 276 713 328 947 276 857 b 278 607 276 692 278 631 b 114 440 278 499 239 440 l 78 440 l 78 357 l 114 357 b 278 190 239 357 278 299 b 276 85 278 167 276 106 b 578 -196 276 -60 328 -150 z "},"}":{"ha":671,"x_min":0,"x_max":0,"o":"m 93 -196 b 394 85 343 -150 394 -60 b 393 190 394 106 393 167 b 556 357 393 299 432 357 l 592 357 l 592 440 l 556 440 b 393 607 432 440 393 499 b 394 713 393 631 394 692 b 93 993 394 857 343 947 l 75 922 b 293 699 271 872 293 824 b 292 594 293 671 292 624 b 436 399 292 478 343 429 b 292 203 347 371 292 319 b 293 99 292 174 293 126 b 75 -125 293 -26 271 -75 z "},"@":{"ha":1361,"x_min":0,"x_max":0,"o":"m 693 -225 b 1061 -121 838 -225 954 -186 l 1039 -83 b 693 -178 932 -146 832 -178 b 124 381 360 -178 124 71 b 682 942 124 689 363 942 b 1238 439 1000 942 1238 694 b 1043 153 1238 242 1142 153 b 925 265 968 153 925 194 b 935 350 925 281 928 311 l 990 665 l 897 678 l 879 582 b 676 697 846 640 785 697 b 356 351 519 697 356 549 b 604 99 356 199 468 99 b 833 215 708 99 779 151 b 1028 99 860 146 926 99 b 1288 439 1156 99 1288 203 b 682 989 1288 729 1022 989 b 74 381 342 989 74 713 b 693 -225 74 49 338 -225 z m 625 185 b 456 358 526 185 456 249 b 531 543 456 432 486 497 b 683 611 574 586 628 611 b 853 435 781 611 853 536 b 775 251 853 365 822 299 b 625 185 735 211 681 185 z "},"©":{"ha":1153,"x_min":0,"x_max":0,"o":"m 575 -17 b 1079 486 857 -17 1079 213 l 1079 489 b 578 989 1079 763 860 989 b 74 486 296 989 74 760 l 74 483 b 575 -17 74 210 293 -17 z m 575 26 b 119 483 315 26 119 232 l 119 486 b 578 946 119 738 317 946 b 1033 489 838 946 1033 740 l 1033 486 b 575 26 1033 235 836 26 z m 582 226 b 788 318 675 226 733 263 l 738 367 b 585 297 692 324 650 297 b 401 493 482 297 401 386 l 401 496 b 583 690 401 601 479 690 b 733 621 644 690 693 660 l 785 676 b 585 760 733 725 678 760 b 324 494 435 760 324 639 l 324 492 b 582 226 324 346 435 226 z "},"℗":{"ha":1153,"x_min":0,"x_max":0,"o":"m 575 -17 b 1079 486 857 -17 1079 213 l 1079 489 b 578 989 1079 763 860 989 b 74 486 296 989 74 760 l 74 483 b 575 -17 74 210 293 -17 z m 575 26 b 119 483 315 26 119 232 l 119 486 b 578 946 119 738 317 946 b 1033 489 838 946 1033 740 l 1033 486 b 575 26 1033 235 836 26 z m 406 239 l 483 239 l 483 413 l 599 413 b 808 585 710 413 808 469 l 808 588 b 608 754 808 693 729 754 l 406 754 z m 483 482 l 483 685 l 601 685 b 731 586 681 685 731 653 l 731 583 b 600 482 731 519 679 482 z "},"®":{"ha":560,"x_min":0,"x_max":0,"o":"m 281 500 b 522 743 415 500 522 611 l 522 744 b 281 986 522 876 417 986 b 39 743 146 986 39 875 l 39 742 b 281 500 39 610 144 500 z m 281 526 b 67 742 158 526 67 624 l 67 743 b 281 960 67 861 160 960 b 494 744 403 960 494 863 l 494 743 b 281 526 494 625 401 526 z m 186 625 l 233 625 l 233 710 l 285 710 l 343 625 l 400 625 l 335 718 b 392 793 368 728 392 753 b 297 871 392 844 351 871 l 186 871 z m 233 749 l 233 829 l 293 829 b 343 789 325 829 343 815 b 293 749 343 765 325 749 z "},"℠":{"ha":982,"x_min":0,"x_max":0,"o":"m 490 544 l 550 544 l 550 872 l 703 640 l 710 640 l 863 872 l 863 544 l 924 544 l 924 972 l 860 972 l 707 738 l 556 972 l 490 972 z m 231 538 b 388 664 318 538 388 586 b 239 786 388 733 333 765 b 126 863 150 806 126 826 b 215 926 126 899 160 926 b 340 881 261 926 303 910 l 375 925 b 218 979 331 961 279 979 b 65 857 128 979 65 928 b 215 733 65 783 119 754 b 326 658 301 714 326 696 b 232 590 326 618 289 590 b 81 650 174 590 125 613 l 44 607 b 231 538 96 563 161 538 z "},"™":{"ha":958,"x_min":0,"x_max":0,"o":"m 467 544 l 528 544 l 528 872 l 679 640 l 688 640 l 840 872 l 840 544 l 900 544 l 900 972 l 836 972 l 685 738 l 532 972 l 467 972 z m 174 544 l 235 544 l 235 914 l 372 914 l 372 972 l 36 972 l 36 914 l 174 914 z "},"*":{"ha":597,"x_min":0,"x_max":0,"o":"m 263 551 l 335 551 l 321 725 l 464 624 l 501 689 l 340 763 l 501 838 l 464 901 l 321 801 l 335 975 l 263 975 l 276 801 l 133 901 l 96 838 l 257 763 l 96 689 l 133 624 l 276 725 z "},"†":{"ha":569,"x_min":0,"x_max":0,"o":"m 247 331 l 322 331 l 314 722 l 486 711 l 486 788 l 315 776 l 328 972 l 242 972 l 254 776 l 83 788 l 83 711 l 256 722 z "},"‡":{"ha":597,"x_min":0,"x_max":0,"o":"m 256 0 l 342 0 l 329 196 l 500 185 l 500 261 l 328 250 l 336 486 l 328 722 l 500 711 l 500 788 l 329 776 l 342 972 l 256 972 l 268 776 l 97 788 l 97 711 l 269 722 l 261 486 l 269 250 l 97 261 l 97 185 l 268 196 z "},"$":{"ha":883,"x_min":0,"x_max":0,"o":"m 760 858 b 494 969 678 921 599 958 l 494 1053 l 406 1053 l 406 972 b 114 715 235 964 114 858 l 114 714 b 410 444 114 568 204 493 l 410 96 b 140 229 306 108 224 154 l 78 146 b 406 3 175 63 282 14 l 406 -136 l 494 -136 l 494 0 b 790 263 668 11 790 113 b 490 532 790 404 701 485 l 490 875 b 700 775 564 864 632 831 z m 683 256 l 683 254 b 490 92 683 164 610 99 l 490 426 b 683 256 643 386 683 338 z m 221 722 b 410 879 221 807 292 874 l 410 551 b 221 722 257 592 221 643 z "},"£":{"ha":894,"x_min":0,"x_max":0,"o":"m 93 0 l 813 0 l 813 97 l 319 97 l 319 410 l 707 410 l 707 506 l 319 506 l 319 656 b 379 833 319 732 340 793 b 515 885 414 867 458 885 b 729 769 617 885 675 838 l 814 836 b 517 986 749 921 664 986 b 297 903 425 986 350 956 b 210 656 240 846 210 758 l 210 506 l 93 506 l 93 410 l 210 410 l 210 93 l 93 64 z "},"€":{"ha":1000,"x_min":0,"x_max":0,"o":"m 925 799 b 590 989 851 908 754 989 b 208 653 403 989 260 847 l 78 653 l 78 567 l 192 567 b 188 485 189 540 188 513 b 190 417 188 461 188 438 l 78 417 l 78 329 l 204 329 b 597 -17 253 122 400 -17 b 928 186 754 -17 851 71 l 849 242 b 601 82 782 144 711 82 b 317 329 464 82 358 179 l 678 329 l 678 417 l 300 417 b 297 488 297 439 297 463 b 301 567 297 514 299 540 l 678 567 l 678 653 l 321 653 b 586 890 364 793 461 890 b 842 739 704 890 772 836 z "},"¥":{"ha":953,"x_min":0,"x_max":0,"o":"m 139 369 l 424 369 l 424 247 l 139 247 l 139 161 l 424 161 l 424 0 l 529 0 l 529 161 l 814 161 l 814 247 l 529 247 l 529 369 l 814 369 l 814 456 l 561 456 l 915 972 l 790 972 l 478 497 l 168 972 l 38 972 l 389 456 l 139 456 z "},"¢":{"ha":807,"x_min":0,"x_max":0,"o":"m 578 981 l 488 981 l 465 868 l 449 868 b 81 493 240 868 81 696 l 81 490 b 324 139 81 329 181 190 l 294 -8 l 385 -8 l 410 119 b 447 118 422 118 435 118 b 740 258 581 118 668 176 l 674 321 b 453 214 617 260 544 214 b 424 215 443 214 433 214 l 531 760 b 667 667 579 743 622 711 l 736 739 b 553 854 681 797 622 836 z m 189 493 l 189 496 b 446 772 189 650 301 772 l 451 772 l 346 236 b 189 493 251 279 189 378 z "},"฿":{"ha":882,"x_min":0,"x_max":0,"o":"m 476 1082 l 460 972 l 125 972 l 125 0 l 310 0 l 286 -164 l 368 -164 l 392 0 l 474 0 b 813 265 676 0 813 97 l 813 267 b 607 500 813 400 722 465 b 775 729 692 531 775 596 b 542 967 775 858 683 944 l 560 1082 z m 465 449 b 710 271 624 449 710 385 b 476 93 710 157 621 93 l 401 93 l 456 449 z m 226 532 l 226 879 l 450 879 l 397 532 z m 674 713 b 469 532 674 600 593 536 l 521 875 b 674 713 618 860 674 800 z m 226 93 l 226 449 l 385 449 l 329 93 z "},"₡":{"ha":840,"x_min":0,"x_max":0,"o":"m 650 1082 l 628 954 b 504 975 592 967 551 974 l 521 1082 l 451 1082 l 433 971 b 71 490 224 943 71 760 l 71 481 b 283 51 71 278 154 126 l 249 -164 l 319 -164 l 349 21 b 472 -1 388 7 429 0 l 447 -164 l 518 -164 l 544 0 b 785 122 644 13 718 58 l 728 193 b 556 93 672 142 621 106 l 674 824 b 728 781 693 811 710 796 l 778 867 b 694 925 751 889 725 908 l 719 1082 z m 361 117 l 486 885 l 490 885 b 617 857 539 885 579 874 l 492 88 b 361 117 444 88 400 97 z m 174 479 l 174 490 b 421 876 174 701 276 843 l 304 153 b 174 479 225 218 174 329 z "},"ƒ":{"ha":714,"x_min":0,"x_max":0,"o":"m 129 -7 b 336 179 249 -7 311 50 l 399 518 l 615 518 l 615 611 l 415 611 l 443 761 b 568 886 460 850 496 886 b 664 872 597 886 631 881 l 664 964 b 551 979 631 975 599 979 b 335 776 425 979 361 915 l 303 611 l 151 611 l 151 518 l 288 518 l 226 190 b 118 85 214 117 176 85 b 57 90 94 85 76 86 l 57 -1 b 129 -7 76 -4 99 -7 z "},"₦":{"ha":1146,"x_min":0,"x_max":0,"o":"m 1085 315 l 1085 393 l 947 393 l 947 585 l 1085 585 l 1085 663 l 947 663 l 947 972 l 844 972 l 844 663 l 528 663 l 336 972 l 200 972 l 200 663 l 61 663 l 61 585 l 200 585 l 200 393 l 61 393 l 61 315 l 200 315 l 200 0 l 303 0 l 303 315 l 624 315 l 821 0 l 947 0 l 947 315 z m 301 586 l 461 586 l 582 392 l 301 392 z m 569 586 l 844 586 l 844 392 l 690 392 z m 301 840 l 303 840 l 415 660 l 301 660 z m 843 147 l 736 318 l 844 318 l 844 147 z "},"₱":{"ha":1006,"x_min":0,"x_max":0,"o":"m 186 0 l 297 0 l 297 326 l 453 326 b 835 615 649 326 817 426 l 971 615 l 971 692 l 835 692 b 472 972 819 864 678 972 l 186 972 l 186 692 l 49 692 l 49 615 l 186 615 z m 457 422 l 294 422 l 294 618 l 726 618 b 457 422 714 500 610 422 z m 294 875 l 461 875 b 725 688 608 875 711 811 l 294 688 z "},"₨":{"ha":1501,"x_min":0,"x_max":0,"o":"m 114 0 l 218 0 l 218 374 l 444 374 l 690 0 l 815 0 l 554 393 b 782 676 685 429 782 525 l 782 681 b 447 972 782 857 653 972 l 114 972 z m 218 467 l 218 876 l 442 876 b 676 676 588 876 676 806 l 676 672 b 440 467 676 544 581 467 z m 1178 -14 b 1429 193 1315 -14 1429 63 l 1429 196 b 1203 406 1429 301 1361 356 b 1025 536 1067 449 1025 479 l 1025 539 b 1163 644 1025 599 1081 644 b 1368 572 1235 644 1303 615 l 1413 653 b 1167 732 1342 700 1256 732 b 928 532 1032 732 928 651 l 928 529 b 1163 318 928 422 1001 369 b 1331 189 1296 275 1331 244 l 1331 186 b 1182 74 1331 118 1265 74 b 946 163 1094 74 1022 106 l 894 86 b 1178 -14 972 26 1074 -14 z "},"₩":{"ha":1535,"x_min":0,"x_max":0,"o":"m 1418 972 l 1304 972 l 1222 658 l 925 658 l 836 975 l 704 975 l 615 658 l 318 658 l 236 972 l 118 972 l 206 658 l 56 658 l 56 581 l 228 581 l 281 396 l 56 396 l 56 318 l 301 318 l 393 -4 l 519 -4 l 613 318 l 922 318 l 1017 -4 l 1142 -4 l 1232 318 l 1481 318 l 1481 396 l 1254 396 l 1307 581 l 1481 581 l 1481 658 l 1329 658 z m 688 582 l 847 582 l 901 393 l 635 393 z m 335 582 l 593 582 l 543 396 l 383 396 z m 944 582 l 1203 582 l 1156 396 l 997 396 z m 457 108 l 403 318 l 521 318 l 464 108 z m 1078 108 l 1018 318 l 1136 318 l 1083 108 z m 764 853 l 771 853 l 826 658 l 708 658 z "},"₪":{"ha":865,"x_min":0,"x_max":0,"o":"m 328 193 b 547 0 349 63 415 0 l 765 0 l 765 718 l 675 718 l 675 92 l 549 92 b 399 226 457 92 414 136 l 358 475 l 283 475 z m 486 490 l 486 254 l 561 254 l 561 519 b 353 718 561 657 490 718 l 100 718 l 100 0 l 190 0 l 190 626 l 343 626 b 486 490 439 626 486 586 z "},"#":{"ha":972,"x_min":0,"x_max":0,"o":"m 854 342 l 690 342 l 740 636 l 908 636 l 908 732 l 757 732 l 799 972 l 701 972 l 660 732 l 394 732 l 436 972 l 339 972 l 297 732 l 117 732 l 117 636 l 281 636 l 231 342 l 63 342 l 63 246 l 214 246 l 172 0 l 269 0 l 311 246 l 576 246 l 535 0 l 632 0 l 674 246 l 854 246 z m 379 638 l 643 638 l 593 340 l 328 340 z "},"¶":{"ha":708,"x_min":0,"x_max":0,"o":"m 469 0 l 581 0 l 581 972 l 433 972 b 67 671 218 972 67 860 l 67 668 b 454 367 67 474 235 367 l 469 367 z "},"§":{"ha":878,"x_min":0,"x_max":0,"o":"m 608 314 b 792 472 717 332 792 389 l 792 475 b 503 672 792 571 714 622 b 276 800 329 714 276 749 l 276 803 b 419 894 276 856 324 894 b 671 788 521 894 607 850 l 740 854 b 422 986 663 933 551 986 b 167 801 267 986 167 913 l 167 799 b 269 658 167 739 207 690 b 86 500 161 640 86 585 l 86 497 b 375 300 86 403 164 350 b 601 172 546 260 601 224 l 601 169 b 458 78 601 118 556 78 b 207 185 357 78 271 122 l 138 118 b 456 -14 215 39 326 -14 b 711 171 611 -14 711 60 l 711 174 b 608 314 711 233 671 283 z m 538 365 b 386 388 501 365 453 371 b 189 508 233 425 189 463 l 189 511 b 340 607 189 563 250 607 b 492 585 376 607 424 601 b 689 464 644 547 689 510 l 689 461 b 538 365 689 410 628 365 z "},"ª":{"ha":542,"x_min":0,"x_max":0,"o":"m 233 567 b 367 628 292 567 336 590 l 367 575 l 435 575 l 435 815 b 394 932 435 865 421 906 b 265 976 364 961 321 976 b 118 942 207 976 165 963 l 139 883 b 258 914 179 901 215 914 b 367 815 326 914 367 879 l 367 808 b 256 824 336 817 303 824 b 85 694 156 824 85 778 l 85 692 b 233 567 85 608 160 567 z m 246 625 b 157 694 197 625 157 650 l 157 697 b 261 771 157 740 196 771 b 367 756 306 771 339 764 l 367 722 b 246 625 367 664 311 625 z m 81 401 l 442 401 l 442 467 l 81 467 z "},"º":{"ha":542,"x_min":0,"x_max":0,"o":"m 269 565 b 475 772 388 565 475 660 l 475 775 b 272 979 475 886 389 979 b 67 772 154 979 67 885 l 67 769 b 269 565 67 658 153 565 z m 71 401 l 471 401 l 471 467 l 71 467 z m 272 632 b 142 772 197 632 142 696 l 142 775 b 269 913 142 850 193 913 b 400 772 344 913 400 850 l 400 769 b 272 632 400 694 349 632 z "},"°":{"ha":636,"x_min":0,"x_max":0,"o":"m 318 556 b 536 767 432 556 536 654 l 536 769 b 318 981 536 883 432 981 b 100 769 204 981 100 883 l 100 767 b 318 556 100 654 204 556 z m 318 628 b 181 767 239 628 181 694 l 181 769 b 318 908 181 842 239 908 b 456 769 397 908 456 842 l 456 767 b 318 628 456 694 397 628 z "},"%":{"ha":1158,"x_min":0,"x_max":0,"o":"m 292 486 b 513 735 424 486 513 603 l 513 738 b 294 983 513 868 425 983 b 72 735 161 983 72 867 l 72 732 b 292 486 72 601 160 486 z m 292 906 b 421 735 363 906 421 832 l 421 732 b 294 564 421 639 369 564 b 165 735 222 564 165 638 l 165 738 b 292 906 165 829 215 906 z m 547 507 l 172 0 l 272 0 l 610 463 l 985 972 l 886 972 z m 864 -11 b 1085 238 997 -11 1085 106 l 1085 240 b 867 486 1085 371 999 486 b 646 238 735 486 646 369 l 646 235 b 864 -11 646 104 733 -11 z m 867 67 b 738 238 794 67 738 140 l 738 240 b 864 408 738 332 789 408 b 993 238 936 408 993 335 l 993 235 b 867 67 993 142 943 67 z "},"‰":{"ha":1682,"x_min":0,"x_max":0,"o":"m 294 564 b 165 735 222 564 165 638 l 165 738 b 292 906 165 829 215 906 b 421 735 363 906 421 832 l 421 732 b 294 564 421 639 369 564 z m 292 486 b 513 735 424 486 513 603 l 513 738 b 294 983 513 868 425 983 b 72 735 161 983 72 867 l 72 732 b 292 486 72 601 160 486 z m 985 972 l 886 972 l 547 507 l 172 0 l 272 0 l 610 463 z m 867 67 b 738 238 794 67 738 140 l 738 240 b 864 408 738 332 789 408 b 993 238 936 408 993 335 l 993 235 b 867 67 993 142 943 67 z m 864 -11 b 1085 238 997 -11 1085 106 l 1085 240 b 867 486 1085 371 999 486 b 646 238 735 486 646 369 l 646 235 b 864 -11 646 104 733 -11 z m 1390 67 b 1261 238 1319 67 1261 140 l 1261 240 b 1388 408 1261 332 1313 408 b 1517 238 1460 408 1517 335 l 1517 235 b 1390 67 1517 142 1467 67 z m 1388 -11 b 1610 238 1521 -11 1610 106 l 1610 240 b 1390 486 1610 371 1522 486 b 1169 238 1258 486 1169 369 l 1169 235 b 1388 -11 1169 104 1257 -11 z "},"\"":{"ha":611,"x_min":0,"x_max":0,"o":"m 361 594 l 419 594 l 532 965 l 532 972 l 404 972 z m 90 594 l 149 594 l 261 965 l 261 972 l 132 972 z "},"'":{"ha":340,"x_min":0,"x_max":0,"o":"m 90 594 l 150 594 l 263 965 l 263 972 l 132 972 z "},"+":{"ha":868,"x_min":0,"x_max":0,"o":"m 382 153 l 486 153 l 486 439 l 774 439 l 774 539 l 486 539 l 486 825 l 382 825 l 382 539 l 94 539 l 94 439 l 382 439 z "},"−":{"ha":868,"x_min":0,"x_max":0,"o":"m 774 438 l 774 540 l 94 540 l 94 438 z "},"÷":{"ha":868,"x_min":0,"x_max":0,"o":"m 364 693 l 504 693 l 504 838 l 364 838 z m 774 440 l 774 538 l 94 538 l 94 440 z m 364 142 l 504 142 l 504 285 l 364 285 z "},"=":{"ha":868,"x_min":0,"x_max":0,"o":"m 111 600 l 757 600 l 757 703 l 111 703 z m 111 275 l 757 275 l 757 378 l 111 378 z "},"×":{"ha":868,"x_min":0,"x_max":0,"o":"m 675 176 l 747 249 l 501 490 l 747 732 l 678 801 l 436 556 l 194 801 l 122 729 l 367 488 l 122 246 l 192 176 l 433 422 z "},"<":{"ha":868,"x_min":0,"x_max":0,"o":"m 742 119 l 742 228 l 206 490 l 742 751 l 742 858 l 89 535 l 89 443 z "},">":{"ha":868,"x_min":0,"x_max":0,"o":"m 128 119 l 779 443 l 779 535 l 128 858 l 128 750 l 663 488 l 128 226 z "},"±":{"ha":868,"x_min":0,"x_max":0,"o":"m 763 506 l 763 603 l 485 603 l 485 875 l 383 875 l 383 603 l 107 603 l 107 506 l 383 506 l 383 233 l 485 233 l 485 506 z m 763 0 l 763 96 l 107 96 l 107 0 z "},"½":{"ha":1146,"x_min":0,"x_max":0,"o":"m 686 0 l 1072 0 l 1072 67 l 785 67 l 942 200 b 1068 397 1028 274 1068 321 b 894 551 1068 485 994 551 b 693 431 799 551 740 503 l 746 393 b 890 486 788 454 832 486 b 993 392 949 486 993 447 b 886 236 993 339 960 299 l 686 61 z m 174 0 l 249 0 l 565 474 l 910 972 l 835 972 l 518 499 z m 289 435 l 289 981 l 232 981 l 79 922 l 97 860 l 217 906 l 217 435 z "},"⅓":{"ha":1146,"x_min":0,"x_max":0,"o":"m 878 -14 b 1065 153 983 -14 1065 54 b 886 308 1065 251 986 300 l 1058 479 l 1058 538 l 706 538 l 706 471 l 967 471 l 792 296 l 806 250 l 851 250 b 992 151 932 250 992 215 b 879 51 992 92 942 51 b 724 132 818 51 767 81 l 675 83 b 878 -14 722 26 789 -14 z m 289 435 l 289 981 l 232 981 l 79 922 l 97 860 l 217 906 l 217 435 z m 156 0 l 231 0 l 547 474 l 892 972 l 817 972 l 500 499 z "},"⅔":{"ha":1250,"x_min":0,"x_max":0,"o":"m 982 -14 b 1169 153 1088 -14 1169 54 b 990 308 1169 251 1090 300 l 1163 479 l 1163 538 l 810 538 l 810 471 l 1071 471 l 896 296 l 910 250 l 956 250 b 1096 151 1036 250 1096 215 b 983 51 1096 92 1046 51 b 828 132 922 51 871 81 l 779 83 b 982 -14 826 26 893 -14 z m 68 435 l 454 435 l 454 500 l 167 500 l 324 635 b 450 832 410 708 450 756 b 276 986 450 919 376 986 b 75 865 181 986 122 938 l 128 828 b 272 921 169 889 214 921 b 375 826 331 921 375 882 b 268 671 375 774 342 733 l 68 496 z m 257 0 l 332 0 l 649 474 l 993 972 l 918 972 l 601 499 z "},"¼":{"ha":1146,"x_min":0,"x_max":0,"o":"m 1007 121 l 1082 121 l 1082 181 l 1007 181 l 1007 546 l 929 546 l 661 183 l 676 121 l 940 121 l 940 -3 l 1007 -3 z m 188 0 l 263 0 l 579 474 l 924 972 l 849 972 l 532 499 z m 289 435 l 289 981 l 232 981 l 79 922 l 97 860 l 217 906 l 217 435 z m 940 181 l 735 181 l 940 460 z "},"¾":{"ha":1250,"x_min":0,"x_max":0,"o":"m 1111 121 l 1186 121 l 1186 181 l 1111 181 l 1111 546 l 1033 546 l 765 183 l 781 121 l 1044 121 l 1044 -3 l 1111 -3 z m 274 421 b 461 588 379 421 461 489 b 282 743 461 686 382 735 l 454 914 l 454 972 l 101 972 l 101 906 l 363 906 l 188 731 l 201 685 l 247 685 b 388 586 328 685 388 650 b 275 486 388 526 338 486 b 119 567 214 486 163 515 l 71 518 b 274 421 118 461 185 421 z m 285 0 l 360 0 l 676 474 l 1021 972 l 946 972 l 629 499 z m 1044 181 l 839 181 l 1044 460 z "},"⅕":{"ha":1146,"x_min":0,"x_max":0,"o":"m 876 -14 b 1079 167 992 -14 1079 60 b 889 331 1079 269 994 331 b 781 310 849 331 811 324 l 792 468 l 1053 468 l 1053 538 l 732 538 l 713 267 l 761 238 b 879 265 796 254 835 265 b 1006 163 953 265 1006 226 b 879 51 1006 100 956 51 b 726 128 822 51 772 79 l 678 76 b 876 -14 731 24 797 -14 z m 289 435 l 289 981 l 232 981 l 79 922 l 97 860 l 217 906 l 217 435 z m 163 0 l 238 0 l 554 474 l 899 972 l 824 972 l 507 499 z "},"⅖":{"ha":1250,"x_min":0,"x_max":0,"o":"m 981 -14 b 1183 167 1096 -14 1183 60 b 993 331 1183 269 1099 331 b 885 310 953 331 915 324 l 896 468 l 1157 468 l 1157 538 l 836 538 l 817 267 l 865 238 b 983 265 900 254 939 265 b 1110 163 1057 265 1110 226 b 983 51 1110 100 1060 51 b 831 128 926 51 876 79 l 782 76 b 981 -14 835 24 901 -14 z m 271 0 l 346 0 l 663 474 l 1007 972 l 932 972 l 615 499 z m 68 435 l 454 435 l 454 500 l 167 500 l 324 635 b 450 832 410 708 450 756 b 276 986 450 919 376 986 b 75 865 181 986 122 938 l 128 828 b 272 921 169 889 214 921 b 375 826 331 921 375 882 b 268 671 375 774 342 733 l 68 496 z "},"⅗":{"ha":1250,"x_min":0,"x_max":0,"o":"m 981 -14 b 1183 167 1096 -14 1183 60 b 993 331 1183 269 1099 331 b 885 310 953 331 915 324 l 896 468 l 1157 468 l 1157 538 l 836 538 l 817 267 l 865 238 b 983 265 900 254 939 265 b 1110 163 1057 265 1110 226 b 983 51 1110 100 1060 51 b 831 128 926 51 876 79 l 782 76 b 981 -14 835 24 901 -14 z m 250 0 l 325 0 l 642 474 l 986 972 l 911 972 l 594 499 z m 260 421 b 447 588 365 421 447 489 b 268 743 447 686 368 735 l 440 914 l 440 972 l 88 972 l 88 906 l 349 906 l 174 731 l 188 685 l 233 685 b 374 586 314 685 374 650 b 261 486 374 526 324 486 b 106 567 200 486 149 515 l 57 518 b 260 421 104 461 171 421 z "},"⅘":{"ha":1250,"x_min":0,"x_max":0,"o":"m 403 554 l 478 554 l 478 615 l 403 615 l 403 979 l 325 979 l 57 618 l 72 554 l 336 554 l 336 432 l 403 432 z m 981 -14 b 1183 167 1096 -14 1183 60 b 993 331 1183 269 1099 331 b 885 310 953 331 915 324 l 896 468 l 1157 468 l 1157 538 l 836 538 l 817 267 l 865 238 b 983 265 900 254 939 265 b 1110 163 1057 265 1110 226 b 983 51 1110 100 1060 51 b 831 128 926 51 876 79 l 782 76 b 981 -14 835 24 901 -14 z m 271 0 l 346 0 l 663 474 l 1007 972 l 932 972 l 615 499 z m 336 615 l 131 615 l 336 894 z "},"⅙":{"ha":1146,"x_min":0,"x_max":0,"o":"m 881 -12 b 1069 171 988 -12 1069 65 b 894 343 1069 279 989 343 b 753 281 824 343 785 315 b 899 486 754 400 819 486 b 1014 435 946 486 982 467 l 1056 489 b 901 551 1013 529 971 551 b 679 251 767 551 679 429 l 679 249 b 746 40 679 133 708 78 b 881 -12 776 8 825 -12 z m 174 0 l 249 0 l 565 474 l 910 972 l 835 972 l 518 499 z m 289 435 l 289 981 l 232 981 l 79 922 l 97 860 l 217 906 l 217 435 z m 879 50 b 760 167 814 50 760 99 b 883 282 760 235 813 282 b 1000 167 953 282 1000 238 b 879 50 1000 97 949 50 z "},"⅚":{"ha":1250,"x_min":0,"x_max":0,"o":"m 985 -12 b 1174 171 1092 -12 1174 65 b 999 343 1174 279 1093 343 b 857 281 928 343 889 315 b 1003 486 858 400 924 486 b 1118 435 1050 486 1086 467 l 1160 489 b 1006 551 1117 529 1075 551 b 783 251 871 551 783 429 l 783 249 b 850 40 783 133 813 78 b 985 -12 881 8 929 -12 z m 258 421 b 461 601 374 421 461 493 b 271 765 461 704 376 765 b 163 744 231 765 193 758 l 174 903 l 435 903 l 435 972 l 114 972 l 94 701 l 143 672 b 261 700 178 689 217 700 b 388 597 335 700 388 661 b 261 486 388 535 338 486 b 108 563 204 486 154 514 l 60 511 b 258 421 113 458 179 421 z m 257 0 l 332 0 l 649 474 l 993 972 l 918 972 l 601 499 z m 983 50 b 864 167 918 50 864 99 b 988 282 864 235 917 282 b 1104 167 1057 282 1104 238 b 983 50 1104 97 1053 50 z "},"⅛":{"ha":1146,"x_min":0,"x_max":0,"o":"m 882 -14 b 1082 146 997 -14 1082 49 b 983 278 1082 208 1040 254 b 1067 403 1031 301 1067 342 b 883 551 1067 489 985 551 b 699 403 782 551 699 490 b 783 278 699 342 736 301 b 683 143 725 253 683 208 b 882 -14 683 50 767 -14 z m 883 490 b 997 399 950 490 997 453 b 883 304 997 343 949 304 b 768 399 817 304 768 343 b 883 490 768 453 815 490 z m 883 246 b 1013 146 960 246 1013 204 b 883 47 1013 88 961 47 b 753 146 804 47 753 88 b 883 246 753 204 806 246 z m 289 435 l 289 981 l 232 981 l 79 922 l 97 860 l 217 906 l 217 435 z m 171 0 l 246 0 l 563 474 l 907 972 l 832 972 l 515 499 z "},"⅜":{"ha":1250,"x_min":0,"x_max":0,"o":"m 986 -14 b 1186 146 1101 -14 1186 49 b 1088 278 1186 208 1144 254 b 1171 403 1135 301 1171 342 b 988 551 1171 489 1089 551 b 803 403 886 551 803 490 b 888 278 803 342 840 301 b 788 143 829 253 788 208 b 986 -14 788 50 871 -14 z m 988 490 b 1101 399 1054 490 1101 453 b 988 304 1101 343 1053 304 b 872 399 921 304 872 343 b 988 490 872 453 919 490 z m 988 246 b 1117 146 1064 246 1117 204 b 988 47 1117 88 1065 47 b 857 146 908 47 857 88 b 988 246 857 204 910 246 z m 257 0 l 332 0 l 649 474 l 993 972 l 918 972 l 601 499 z m 260 421 b 447 588 365 421 447 489 b 268 743 447 686 368 735 l 440 914 l 440 972 l 88 972 l 88 906 l 349 906 l 174 731 l 188 685 l 233 685 b 374 586 314 685 374 650 b 261 486 374 526 324 486 b 106 567 200 486 149 515 l 57 518 b 260 421 104 461 171 421 z "},"⅝":{"ha":1250,"x_min":0,"x_max":0,"o":"m 986 -14 b 1186 146 1101 -14 1186 49 b 1088 278 1186 208 1144 254 b 1171 403 1135 301 1171 342 b 988 551 1171 489 1089 551 b 803 403 886 551 803 490 b 888 278 803 342 840 301 b 788 143 829 253 788 208 b 986 -14 788 50 871 -14 z m 988 490 b 1101 399 1054 490 1101 453 b 988 304 1101 343 1053 304 b 872 399 921 304 872 343 b 988 490 872 453 919 490 z m 988 246 b 1117 146 1064 246 1117 204 b 988 47 1117 88 1065 47 b 857 146 908 47 857 88 b 988 246 857 204 910 246 z m 257 0 l 332 0 l 649 474 l 993 972 l 918 972 l 601 499 z m 258 421 b 461 601 374 421 461 493 b 271 765 461 704 376 765 b 163 744 231 765 193 758 l 174 903 l 435 903 l 435 972 l 114 972 l 94 701 l 143 672 b 261 700 178 689 217 700 b 388 597 335 700 388 661 b 261 486 388 535 338 486 b 108 563 204 486 154 514 l 60 511 b 258 421 113 458 179 421 z "},"⅞":{"ha":1250,"x_min":0,"x_max":0,"o":"m 986 -14 b 1186 146 1101 -14 1186 49 b 1088 278 1186 208 1144 254 b 1171 403 1135 301 1171 342 b 988 551 1171 489 1089 551 b 803 403 886 551 803 490 b 888 278 803 342 840 301 b 788 143 829 253 788 208 b 986 -14 788 50 871 -14 z m 988 490 b 1101 399 1054 490 1101 453 b 988 304 1101 343 1053 304 b 872 399 921 304 872 343 b 988 490 872 453 919 490 z m 988 246 b 1117 146 1064 246 1117 204 b 988 47 1117 88 1065 47 b 857 146 908 47 857 88 b 988 246 857 204 910 246 z m 226 432 l 468 917 l 468 972 l 94 972 l 94 903 l 385 903 l 144 432 z m 215 0 l 290 0 l 607 474 l 951 972 l 876 972 l 560 499 z "},"⁰":{"ha":556,"x_min":0,"x_max":0,"o":"m 276 575 b 482 857 397 575 482 693 l 482 861 b 278 1140 482 1025 399 1140 b 74 858 156 1140 74 1022 l 74 854 b 276 575 74 692 154 575 z m 276 1074 b 408 860 357 1074 408 985 l 408 856 b 278 642 408 731 358 642 b 147 856 197 642 147 731 l 147 860 b 276 1074 147 985 196 1074 z "},"¹":{"ha":451,"x_min":0,"x_max":0,"o":"m 293 589 l 293 1136 l 236 1136 l 83 1076 l 101 1014 l 221 1060 l 221 589 z "},"²":{"ha":556,"x_min":0,"x_max":0,"o":"m 82 589 l 468 589 l 468 656 l 181 656 l 338 789 b 464 986 424 863 464 910 b 290 1140 464 1074 390 1140 b 89 1019 194 1140 136 1092 l 142 982 b 286 1075 183 1043 228 1075 b 389 981 344 1075 389 1036 b 282 825 389 928 356 888 l 82 650 z "},"³":{"ha":556,"x_min":0,"x_max":0,"o":"m 274 575 b 461 742 379 575 461 643 b 282 897 461 840 382 889 l 454 1068 l 454 1126 l 101 1126 l 101 1060 l 363 1060 l 188 885 l 201 839 l 247 839 b 388 740 328 839 388 804 b 275 640 388 681 338 640 b 119 721 214 640 163 669 l 71 672 b 274 575 118 615 185 575 z "},"⁴":{"ha":556,"x_min":0,"x_max":0,"o":"m 417 710 l 492 710 l 492 769 l 417 769 l 417 1135 l 339 1135 l 71 772 l 86 710 l 350 710 l 350 586 l 417 586 z m 350 769 l 144 769 l 350 1049 z "},"⁵":{"ha":556,"x_min":0,"x_max":0,"o":"m 272 575 b 475 756 388 575 475 649 b 285 919 475 858 390 919 b 176 899 244 919 207 913 l 188 1057 l 449 1057 l 449 1126 l 128 1126 l 108 856 l 157 826 b 275 854 192 843 231 854 b 401 751 349 854 401 815 b 275 640 401 689 351 640 b 122 717 218 640 168 668 l 74 665 b 272 575 126 613 193 575 z "},"⁶":{"ha":556,"x_min":0,"x_max":0,"o":"m 276 576 b 465 760 383 576 465 654 b 290 932 465 868 385 932 b 149 869 219 932 181 904 b 294 1075 150 989 215 1075 b 410 1024 342 1075 378 1056 l 451 1078 b 297 1140 408 1118 367 1140 b 75 840 163 1140 75 1018 l 75 838 b 142 629 75 722 104 667 b 276 576 172 597 221 576 z m 275 639 b 156 756 210 639 156 688 b 279 871 156 824 208 871 b 396 756 349 871 396 826 b 275 639 396 686 344 639 z "},"⁷":{"ha":556,"x_min":0,"x_max":0,"o":"m 226 586 l 468 1072 l 468 1126 l 94 1126 l 94 1057 l 385 1057 l 144 586 z "},"⁸":{"ha":556,"x_min":0,"x_max":0,"o":"m 278 575 b 478 735 393 575 478 638 b 379 867 478 797 436 843 b 463 992 426 890 463 931 b 279 1140 463 1078 381 1140 b 94 992 178 1140 94 1079 b 179 867 94 931 132 890 b 79 732 121 842 79 797 b 278 575 79 639 163 575 z m 279 1079 b 393 988 346 1079 393 1042 b 279 893 393 932 344 893 b 164 988 213 893 164 932 b 279 1079 164 1042 211 1079 z m 279 835 b 408 735 356 835 408 793 b 279 636 408 676 357 636 b 149 735 200 636 149 676 b 279 835 149 793 201 835 z "},"⁹":{"ha":556,"x_min":0,"x_max":0,"o":"m 279 1139 b 90 953 172 1139 90 1060 b 267 778 90 842 171 778 b 407 840 336 778 375 806 b 261 640 406 721 340 640 b 138 694 208 640 172 661 l 97 642 b 258 575 140 600 189 575 b 481 875 393 575 481 693 l 481 878 b 414 1088 481 993 451 1049 b 279 1139 383 1118 335 1139 z m 276 839 b 160 957 207 839 160 885 b 281 1076 160 1028 211 1076 b 400 957 346 1076 400 1028 b 276 839 400 886 347 839 z "},"₀":{"ha":556,"x_min":0,"x_max":0,"o":"m 276 -197 b 482 85 397 -197 482 -79 l 482 89 b 278 368 482 253 399 368 b 74 86 156 368 74 250 l 74 82 b 276 -197 74 -81 154 -197 z m 276 301 b 408 88 357 301 408 213 l 408 83 b 278 -131 408 -42 358 -131 b 147 83 197 -131 147 -42 l 147 88 b 276 301 147 213 196 301 z "},"₁":{"ha":451,"x_min":0,"x_max":0,"o":"m 293 -183 l 293 364 l 236 364 l 83 304 l 101 242 l 221 288 l 221 -183 z "},"₂":{"ha":556,"x_min":0,"x_max":0,"o":"m 82 -183 l 468 -183 l 468 -117 l 181 -117 l 338 17 b 464 214 424 90 464 138 b 290 368 464 301 390 368 b 89 247 194 368 136 319 l 142 210 b 286 303 183 271 228 303 b 389 208 344 303 389 264 b 282 53 389 156 356 115 l 82 -122 z "},"₃":{"ha":556,"x_min":0,"x_max":0,"o":"m 274 -197 b 461 -31 379 -197 461 -129 b 282 125 461 68 382 117 l 454 296 l 454 354 l 101 354 l 101 288 l 363 288 l 188 113 l 201 67 l 247 67 b 388 -32 328 67 388 32 b 275 -132 388 -92 338 -132 b 119 -51 214 -132 163 -103 l 71 -100 b 274 -197 118 -157 185 -197 z "},"₄":{"ha":556,"x_min":0,"x_max":0,"o":"m 417 -62 l 492 -62 l 492 -3 l 417 -3 l 417 363 l 339 363 l 71 0 l 86 -62 l 350 -62 l 350 -186 l 417 -186 z m 350 -3 l 144 -3 l 350 276 z "},"₅":{"ha":556,"x_min":0,"x_max":0,"o":"m 272 -197 b 475 -17 388 -197 475 -124 b 285 147 475 86 390 147 b 176 126 244 147 207 140 l 188 285 l 449 285 l 449 354 l 128 354 l 108 83 l 157 54 b 275 82 192 71 231 82 b 401 -21 349 82 401 43 b 275 -132 401 -83 351 -132 b 122 -56 218 -132 168 -104 l 74 -107 b 272 -197 126 -160 193 -197 z "},"₆":{"ha":556,"x_min":0,"x_max":0,"o":"m 276 -196 b 465 -12 383 -196 465 -118 b 290 160 465 96 385 160 b 149 97 219 160 181 132 b 294 303 150 217 215 303 b 410 251 342 303 378 283 l 451 306 b 297 368 408 346 367 368 b 75 68 163 368 75 246 l 75 65 b 142 -143 75 -50 104 -106 b 276 -196 172 -175 221 -196 z m 275 -133 b 156 -17 210 -133 156 -85 b 279 99 156 51 208 99 b 396 -17 349 99 396 54 b 275 -133 396 -86 344 -133 z "},"₇":{"ha":556,"x_min":0,"x_max":0,"o":"m 226 -186 l 468 300 l 468 354 l 94 354 l 94 285 l 385 285 l 144 -186 z "},"₈":{"ha":556,"x_min":0,"x_max":0,"o":"m 278 -197 b 478 -37 393 -197 478 -135 b 379 94 478 25 436 71 b 463 219 426 118 463 158 b 279 368 463 306 381 368 b 94 219 178 368 94 307 b 179 94 94 158 132 118 b 79 -40 121 69 79 25 b 278 -197 79 -133 163 -197 z m 279 307 b 393 215 346 307 393 269 b 279 121 393 160 344 121 b 164 215 213 121 164 160 b 279 307 164 269 211 307 z m 279 63 b 408 -37 356 63 408 21 b 279 -136 408 -96 357 -136 b 149 -37 200 -136 149 -96 b 279 63 149 21 201 63 z "},"₉":{"ha":556,"x_min":0,"x_max":0,"o":"m 279 367 b 90 181 172 367 90 288 b 267 6 90 69 171 6 b 407 68 336 6 375 33 b 261 -132 406 -51 340 -132 b 138 -78 208 -132 172 -111 l 97 -131 b 258 -197 140 -172 189 -197 b 481 103 393 -197 481 -79 l 481 106 b 414 315 481 221 451 276 b 279 367 383 346 335 367 z m 276 67 b 160 185 207 67 160 113 b 281 304 160 256 211 304 b 400 185 346 304 400 256 b 276 67 400 114 347 67 z "}," ":{"ha":417,"x_min":0,"x_max":0,"o":""}," ":{"ha":417,"x_min":0,"x_max":0,"o":""}," ":{"ha":1389,"x_min":0,"x_max":0,"o":""}," ":{"ha":694,"x_min":0,"x_max":0,"o":""}," ":{"ha":463,"x_min":0,"x_max":0,"o":""}," ":{"ha":347,"x_min":0,"x_max":0,"o":""}," ":{"ha":185,"x_min":0,"x_max":0,"o":""}," ":{"ha":104,"x_min":0,"x_max":0,"o":""}," ":{"ha":833,"x_min":0,"x_max":0,"o":""},"^":{"ha":694,"x_min":0,"x_max":0,"o":"m 90 685 l 182 685 l 346 899 l 510 685 l 604 685 l 389 975 l 306 975 z "},"~":{"ha":658,"x_min":0,"x_max":0,"o":"m 425 342 b 556 489 492 342 528 383 l 492 507 b 419 438 471 457 456 438 b 333 465 396 438 364 451 b 233 494 299 481 265 494 b 101 347 167 494 129 453 l 167 329 b 239 399 188 381 203 399 b 325 371 261 399 293 385 b 425 342 360 356 393 342 z "},"⁄":{"ha":139,"x_min":0,"x_max":0,"o":"m -299 0 l -224 0 l 93 474 l 438 972 l 363 972 l 46 499 z "},"´":{"ha":694,"x_min":0,"x_max":0,"o":"m 253 826 l 336 826 l 494 976 l 383 1028 z "},"˝":{"ha":694,"x_min":0,"x_max":0,"o":"m 335 826 l 418 826 l 571 976 l 467 1028 z m 128 826 l 211 826 l 363 976 l 258 1028 z "},"`":{"ha":694,"x_min":0,"x_max":0,"o":"m 358 826 l 442 826 l 311 1028 l 200 976 z "},"ˆ":{"ha":694,"x_min":0,"x_max":0,"o":"m 153 826 l 242 826 l 346 919 l 450 826 l 542 826 l 394 1008 l 300 1008 z "},"ˇ":{"ha":694,"x_min":0,"x_max":0,"o":"m 542 1008 l 453 1008 l 349 915 l 244 1008 l 153 1008 l 300 826 l 394 826 z "},"˘":{"ha":694,"x_min":0,"x_max":0,"o":"m 347 824 b 553 997 463 824 544 888 l 475 997 b 347 910 458 946 418 910 b 219 997 276 910 236 946 l 142 997 b 347 824 150 888 232 824 z "},"˜":{"ha":694,"x_min":0,"x_max":0,"o":"m 443 826 b 575 972 510 826 547 868 l 510 990 b 438 922 489 940 474 922 b 351 950 414 922 382 936 b 251 978 317 964 283 978 b 119 832 185 978 147 936 l 185 814 b 257 882 206 864 221 882 b 343 856 281 882 313 868 b 443 826 378 840 411 826 z "},"¯":{"ha":694,"x_min":0,"x_max":0,"o":"m 131 854 l 564 854 l 564 942 l 131 942 z "},"¨":{"ha":694,"x_min":0,"x_max":0,"o":"m 407 826 l 531 826 l 531 958 l 407 958 z m 164 826 l 288 826 l 288 958 l 164 958 z "},"˙":{"ha":694,"x_min":0,"x_max":0,"o":"m 282 826 l 413 826 l 413 960 l 282 960 z "},"˚":{"ha":694,"x_min":0,"x_max":0,"o":"m 347 824 b 499 969 431 824 499 889 b 347 1114 499 1049 431 1114 b 196 969 264 1114 196 1049 b 347 824 196 889 264 824 z m 347 874 b 251 969 296 874 251 917 b 347 1065 251 1021 296 1065 b 443 969 399 1065 443 1021 b 347 874 443 917 399 874 z "},"̦":{"ha":694,"x_min":0,"x_max":0,"o":"m 265 -337 b 410 -196 361 -328 410 -283 l 410 -97 l 285 -97 l 285 -212 l 340 -212 b 256 -296 344 -260 318 -285 z "},"¸":{"ha":694,"x_min":0,"x_max":0,"o":"m 313 -215 l 421 18 l 336 18 l 208 -168 z "},"˛":{"ha":694,"x_min":0,"x_max":0,"o":"m 458 -167 b 356 -101 386 -162 356 -140 b 428 4 356 -65 378 -37 l 354 22 b 264 -117 297 -26 264 -65 b 442 -229 264 -181 325 -226 b 458 -228 447 -229 453 -229 z "}}}
